<?xml version="1.0" encoding="utf-8" standalone="no"?>
<!DOCTYPE svg PUBLIC "-//W3C//DTD SVG 1.1//EN"
  "http://www.w3.org/Graphics/SVG/1.1/DTD/svg11.dtd">
<svg xmlns:xlink="http://www.w3.org/1999/xlink" width="683.85pt" height="520.07pt" viewBox="0 0 683.85 520.07" xmlns="http://www.w3.org/2000/svg" version="1.1">
 <metadata>
  <rdf:RDF xmlns:dc="http://purl.org/dc/elements/1.1/" xmlns:cc="http://creativecommons.org/ns#" xmlns:rdf="http://www.w3.org/1999/02/22-rdf-syntax-ns#">
   <cc:Work>
    <dc:type rdf:resource="http://purl.org/dc/dcmitype/StillImage"/>
    <dc:date>2024-06-17T00:55:09.071493</dc:date>
    <dc:format>image/svg+xml</dc:format>
    <dc:creator>
     <cc:Agent>
      <dc:title>Matplotlib v3.8.2, https://matplotlib.org/</dc:title>
     </cc:Agent>
    </dc:creator>
   </cc:Work>
  </rdf:RDF>
 </metadata>
 <defs>
  <style type="text/css">*{stroke-linejoin: round; stroke-linecap: butt}</style>
 </defs>
 <g id="figure_1">
  <g id="patch_1">
   <path d="M 0 520.07 
L 683.85 520.07 
L 683.85 0 
L 0 0 
z
" style="fill: #ffffff"/>
  </g>
  <g id="axes_1">
   <g id="patch_2">
    <path d="M 93.2 458.318437 
L 651.2 458.318437 
L 651.2 14.798437 
L 93.2 14.798437 
z
" style="fill: #ffffff"/>
   </g>
   <g id="PolyCollection_1">
    <path d="M 69.95 -206.961563 
L 69.95 901.838437 
L 325.7 901.838437 
L 325.7 -206.961563 
L 325.7 -206.961563 
L 69.95 -206.961563 
z
" clip-path="url(#p44fa4f9d45)" style="fill: url(#h72f9b28bbf); fill-opacity: 0.1; stroke: #0000ff; stroke-opacity: 0.1"/>
   </g>
   <g id="PolyCollection_2">
    <defs>
     <path id="mc120d7b2a0" d="M 93.2 -524.602863 
L 93.2 -505.863349 
L 97.85 -320.788428 
L 144.35 -257.44814 
L 190.85 -226.189677 
L 237.35 -207.606249 
L 283.85 -204.085219 
L 330.35 -174.430507 
L 376.85 -153.842452 
L 423.35 -134.060676 
L 469.85 -115.236848 
L 516.35 -97.709091 
L 562.85 -81.985317 
L 609.35 -68.038449 
L 655.85 -54.419292 
L 702.35 -41.163631 
L 748.85 -28.338921 
L 748.85 -37.435628 
L 748.85 -37.435628 
L 702.35 -50.09067 
L 655.85 -63.171945 
L 609.35 -76.621585 
L 562.85 -90.404861 
L 516.35 -105.958591 
L 469.85 -123.299137 
L 423.35 -142.227292 
L 376.85 -162.151259 
L 330.35 -182.874428 
L 283.85 -212.764199 
L 237.35 -216.080127 
L 190.85 -234.416469 
L 144.35 -265.251541 
L 97.85 -327.947026 
L 93.2 -524.602863 
z
" style="stroke: #0000ff; stroke-opacity: 0.3"/>
    </defs>
    <g clip-path="url(#p44fa4f9d45)">
     <use xlink:href="#mc120d7b2a0" x="0" y="520.07" style="fill: #0000ff; fill-opacity: 0.3; stroke: #0000ff; stroke-opacity: 0.3"/>
    </g>
   </g>
   <g id="PolyCollection_3">
    <defs>
     <path id="mdb7a48725c" d="M 93.2 -234.190365 
L 93.2 -226.469133 
L 97.85 -224.988786 
L 144.35 -210.245221 
L 190.85 -195.618373 
L 237.35 -181.120795 
L 283.85 -166.766918 
L 330.35 -152.573092 
L 376.85 -138.557553 
L 423.35 -124.740312 
L 469.85 -111.142919 
L 516.35 -97.788089 
L 562.85 -84.699186 
L 609.35 -71.899541 
L 655.85 -59.411638 
L 702.35 -47.256187 
L 748.85 -35.451165 
L 748.85 -43.172397 
L 748.85 -43.172397 
L 702.35 -54.977419 
L 655.85 -67.132869 
L 609.35 -79.620773 
L 562.85 -92.420417 
L 516.35 -105.50932 
L 469.85 -118.86415 
L 423.35 -132.461544 
L 376.85 -146.278784 
L 330.35 -160.294323 
L 283.85 -174.48815 
L 237.35 -188.842027 
L 190.85 -203.339604 
L 144.35 -217.966452 
L 97.85 -232.710018 
L 93.2 -234.190365 
z
" style="stroke: #808080; stroke-opacity: 0.5"/>
    </defs>
    <g clip-path="url(#p44fa4f9d45)">
     <use xlink:href="#mdb7a48725c" x="0" y="520.07" style="fill: #808080; fill-opacity: 0.5; stroke: #808080; stroke-opacity: 0.5"/>
    </g>
   </g>
   <g id="matplotlib.axis_1">
    <g id="xtick_1">
     <g id="line2d_1">
      <path d="M 93.2 458.318437 
L 93.2 14.798437 
" clip-path="url(#p44fa4f9d45)" style="fill: none; stroke: #b0b0b0; stroke-width: 0.8; stroke-linecap: square"/>
     </g>
     <g id="line2d_2">
      <defs>
       <path id="mce93e232af" d="M 0 0 
L 0 3.5 
" style="stroke: #000000; stroke-width: 0.8"/>
      </defs>
      <g>
       <use xlink:href="#mce93e232af" x="93.2" y="458.318437" style="stroke: #000000; stroke-width: 0.8"/>
      </g>
     </g>
     <g id="text_1">
      <!-- 0 -->
      <g transform="translate(86.8375 480.515312) scale(0.2 -0.2)">
       <defs>
        <path id="DejaVuSans-30" d="M 2034 4250 
Q 1547 4250 1301 3770 
Q 1056 3291 1056 2328 
Q 1056 1369 1301 889 
Q 1547 409 2034 409 
Q 2525 409 2770 889 
Q 3016 1369 3016 2328 
Q 3016 3291 2770 3770 
Q 2525 4250 2034 4250 
z
M 2034 4750 
Q 2819 4750 3233 4129 
Q 3647 3509 3647 2328 
Q 3647 1150 3233 529 
Q 2819 -91 2034 -91 
Q 1250 -91 836 529 
Q 422 1150 422 2328 
Q 422 3509 836 4129 
Q 1250 4750 2034 4750 
z
" transform="scale(0.015625)"/>
       </defs>
       <use xlink:href="#DejaVuSans-30"/>
      </g>
     </g>
    </g>
    <g id="xtick_2">
     <g id="line2d_3">
      <path d="M 186.2 458.318437 
L 186.2 14.798437 
" clip-path="url(#p44fa4f9d45)" style="fill: none; stroke: #b0b0b0; stroke-width: 0.8; stroke-linecap: square"/>
     </g>
     <g id="line2d_4">
      <g>
       <use xlink:href="#mce93e232af" x="186.2" y="458.318437" style="stroke: #000000; stroke-width: 0.8"/>
      </g>
     </g>
     <g id="text_2">
      <!-- 200 -->
      <g transform="translate(167.1125 480.515312) scale(0.2 -0.2)">
       <defs>
        <path id="DejaVuSans-32" d="M 1228 531 
L 3431 531 
L 3431 0 
L 469 0 
L 469 531 
Q 828 903 1448 1529 
Q 2069 2156 2228 2338 
Q 2531 2678 2651 2914 
Q 2772 3150 2772 3378 
Q 2772 3750 2511 3984 
Q 2250 4219 1831 4219 
Q 1534 4219 1204 4116 
Q 875 4013 500 3803 
L 500 4441 
Q 881 4594 1212 4672 
Q 1544 4750 1819 4750 
Q 2544 4750 2975 4387 
Q 3406 4025 3406 3419 
Q 3406 3131 3298 2873 
Q 3191 2616 2906 2266 
Q 2828 2175 2409 1742 
Q 1991 1309 1228 531 
z
" transform="scale(0.015625)"/>
       </defs>
       <use xlink:href="#DejaVuSans-32"/>
       <use xlink:href="#DejaVuSans-30" x="63.623047"/>
       <use xlink:href="#DejaVuSans-30" x="127.246094"/>
      </g>
     </g>
    </g>
    <g id="xtick_3">
     <g id="line2d_5">
      <path d="M 279.2 458.318437 
L 279.2 14.798437 
" clip-path="url(#p44fa4f9d45)" style="fill: none; stroke: #b0b0b0; stroke-width: 0.8; stroke-linecap: square"/>
     </g>
     <g id="line2d_6">
      <g>
       <use xlink:href="#mce93e232af" x="279.2" y="458.318437" style="stroke: #000000; stroke-width: 0.8"/>
      </g>
     </g>
     <g id="text_3">
      <!-- 400 -->
      <g transform="translate(260.1125 480.515312) scale(0.2 -0.2)">
       <defs>
        <path id="DejaVuSans-34" d="M 2419 4116 
L 825 1625 
L 2419 1625 
L 2419 4116 
z
M 2253 4666 
L 3047 4666 
L 3047 1625 
L 3713 1625 
L 3713 1100 
L 3047 1100 
L 3047 0 
L 2419 0 
L 2419 1100 
L 313 1100 
L 313 1709 
L 2253 4666 
z
" transform="scale(0.015625)"/>
       </defs>
       <use xlink:href="#DejaVuSans-34"/>
       <use xlink:href="#DejaVuSans-30" x="63.623047"/>
       <use xlink:href="#DejaVuSans-30" x="127.246094"/>
      </g>
     </g>
    </g>
    <g id="xtick_4">
     <g id="line2d_7">
      <path d="M 372.2 458.318437 
L 372.2 14.798437 
" clip-path="url(#p44fa4f9d45)" style="fill: none; stroke: #b0b0b0; stroke-width: 0.8; stroke-linecap: square"/>
     </g>
     <g id="line2d_8">
      <g>
       <use xlink:href="#mce93e232af" x="372.2" y="458.318437" style="stroke: #000000; stroke-width: 0.8"/>
      </g>
     </g>
     <g id="text_4">
      <!-- 600 -->
      <g transform="translate(353.1125 480.515312) scale(0.2 -0.2)">
       <defs>
        <path id="DejaVuSans-36" d="M 2113 2584 
Q 1688 2584 1439 2293 
Q 1191 2003 1191 1497 
Q 1191 994 1439 701 
Q 1688 409 2113 409 
Q 2538 409 2786 701 
Q 3034 994 3034 1497 
Q 3034 2003 2786 2293 
Q 2538 2584 2113 2584 
z
M 3366 4563 
L 3366 3988 
Q 3128 4100 2886 4159 
Q 2644 4219 2406 4219 
Q 1781 4219 1451 3797 
Q 1122 3375 1075 2522 
Q 1259 2794 1537 2939 
Q 1816 3084 2150 3084 
Q 2853 3084 3261 2657 
Q 3669 2231 3669 1497 
Q 3669 778 3244 343 
Q 2819 -91 2113 -91 
Q 1303 -91 875 529 
Q 447 1150 447 2328 
Q 447 3434 972 4092 
Q 1497 4750 2381 4750 
Q 2619 4750 2861 4703 
Q 3103 4656 3366 4563 
z
" transform="scale(0.015625)"/>
       </defs>
       <use xlink:href="#DejaVuSans-36"/>
       <use xlink:href="#DejaVuSans-30" x="63.623047"/>
       <use xlink:href="#DejaVuSans-30" x="127.246094"/>
      </g>
     </g>
    </g>
    <g id="xtick_5">
     <g id="line2d_9">
      <path d="M 465.2 458.318437 
L 465.2 14.798437 
" clip-path="url(#p44fa4f9d45)" style="fill: none; stroke: #b0b0b0; stroke-width: 0.8; stroke-linecap: square"/>
     </g>
     <g id="line2d_10">
      <g>
       <use xlink:href="#mce93e232af" x="465.2" y="458.318437" style="stroke: #000000; stroke-width: 0.8"/>
      </g>
     </g>
     <g id="text_5">
      <!-- 800 -->
      <g transform="translate(446.1125 480.515312) scale(0.2 -0.2)">
       <defs>
        <path id="DejaVuSans-38" d="M 2034 2216 
Q 1584 2216 1326 1975 
Q 1069 1734 1069 1313 
Q 1069 891 1326 650 
Q 1584 409 2034 409 
Q 2484 409 2743 651 
Q 3003 894 3003 1313 
Q 3003 1734 2745 1975 
Q 2488 2216 2034 2216 
z
M 1403 2484 
Q 997 2584 770 2862 
Q 544 3141 544 3541 
Q 544 4100 942 4425 
Q 1341 4750 2034 4750 
Q 2731 4750 3128 4425 
Q 3525 4100 3525 3541 
Q 3525 3141 3298 2862 
Q 3072 2584 2669 2484 
Q 3125 2378 3379 2068 
Q 3634 1759 3634 1313 
Q 3634 634 3220 271 
Q 2806 -91 2034 -91 
Q 1263 -91 848 271 
Q 434 634 434 1313 
Q 434 1759 690 2068 
Q 947 2378 1403 2484 
z
M 1172 3481 
Q 1172 3119 1398 2916 
Q 1625 2713 2034 2713 
Q 2441 2713 2670 2916 
Q 2900 3119 2900 3481 
Q 2900 3844 2670 4047 
Q 2441 4250 2034 4250 
Q 1625 4250 1398 4047 
Q 1172 3844 1172 3481 
z
" transform="scale(0.015625)"/>
       </defs>
       <use xlink:href="#DejaVuSans-38"/>
       <use xlink:href="#DejaVuSans-30" x="63.623047"/>
       <use xlink:href="#DejaVuSans-30" x="127.246094"/>
      </g>
     </g>
    </g>
    <g id="xtick_6">
     <g id="line2d_11">
      <path d="M 558.2 458.318437 
L 558.2 14.798437 
" clip-path="url(#p44fa4f9d45)" style="fill: none; stroke: #b0b0b0; stroke-width: 0.8; stroke-linecap: square"/>
     </g>
     <g id="line2d_12">
      <g>
       <use xlink:href="#mce93e232af" x="558.2" y="458.318437" style="stroke: #000000; stroke-width: 0.8"/>
      </g>
     </g>
     <g id="text_6">
      <!-- 1000 -->
      <g transform="translate(532.75 480.515312) scale(0.2 -0.2)">
       <defs>
        <path id="DejaVuSans-31" d="M 794 531 
L 1825 531 
L 1825 4091 
L 703 3866 
L 703 4441 
L 1819 4666 
L 2450 4666 
L 2450 531 
L 3481 531 
L 3481 0 
L 794 0 
L 794 531 
z
" transform="scale(0.015625)"/>
       </defs>
       <use xlink:href="#DejaVuSans-31"/>
       <use xlink:href="#DejaVuSans-30" x="63.623047"/>
       <use xlink:href="#DejaVuSans-30" x="127.246094"/>
       <use xlink:href="#DejaVuSans-30" x="190.869141"/>
      </g>
     </g>
    </g>
    <g id="xtick_7">
     <g id="line2d_13">
      <path d="M 651.2 458.318437 
L 651.2 14.798437 
" clip-path="url(#p44fa4f9d45)" style="fill: none; stroke: #b0b0b0; stroke-width: 0.8; stroke-linecap: square"/>
     </g>
     <g id="line2d_14">
      <g>
       <use xlink:href="#mce93e232af" x="651.2" y="458.318437" style="stroke: #000000; stroke-width: 0.8"/>
      </g>
     </g>
     <g id="text_7">
      <!-- 1200 -->
      <g transform="translate(625.75 480.515312) scale(0.2 -0.2)">
       <use xlink:href="#DejaVuSans-31"/>
       <use xlink:href="#DejaVuSans-32" x="63.623047"/>
       <use xlink:href="#DejaVuSans-30" x="127.246094"/>
       <use xlink:href="#DejaVuSans-30" x="190.869141"/>
      </g>
     </g>
    </g>
    <g id="text_8">
     <!-- Slant depth [m w.e.] -->
     <g transform="translate(245.358203 507.670781) scale(0.25 -0.25)">
      <defs>
       <path id="DejaVuSans-53" d="M 3425 4513 
L 3425 3897 
Q 3066 4069 2747 4153 
Q 2428 4238 2131 4238 
Q 1616 4238 1336 4038 
Q 1056 3838 1056 3469 
Q 1056 3159 1242 3001 
Q 1428 2844 1947 2747 
L 2328 2669 
Q 3034 2534 3370 2195 
Q 3706 1856 3706 1288 
Q 3706 609 3251 259 
Q 2797 -91 1919 -91 
Q 1588 -91 1214 -16 
Q 841 59 441 206 
L 441 856 
Q 825 641 1194 531 
Q 1563 422 1919 422 
Q 2459 422 2753 634 
Q 3047 847 3047 1241 
Q 3047 1584 2836 1778 
Q 2625 1972 2144 2069 
L 1759 2144 
Q 1053 2284 737 2584 
Q 422 2884 422 3419 
Q 422 4038 858 4394 
Q 1294 4750 2059 4750 
Q 2388 4750 2728 4690 
Q 3069 4631 3425 4513 
z
" transform="scale(0.015625)"/>
       <path id="DejaVuSans-6c" d="M 603 4863 
L 1178 4863 
L 1178 0 
L 603 0 
L 603 4863 
z
" transform="scale(0.015625)"/>
       <path id="DejaVuSans-61" d="M 2194 1759 
Q 1497 1759 1228 1600 
Q 959 1441 959 1056 
Q 959 750 1161 570 
Q 1363 391 1709 391 
Q 2188 391 2477 730 
Q 2766 1069 2766 1631 
L 2766 1759 
L 2194 1759 
z
M 3341 1997 
L 3341 0 
L 2766 0 
L 2766 531 
Q 2569 213 2275 61 
Q 1981 -91 1556 -91 
Q 1019 -91 701 211 
Q 384 513 384 1019 
Q 384 1609 779 1909 
Q 1175 2209 1959 2209 
L 2766 2209 
L 2766 2266 
Q 2766 2663 2505 2880 
Q 2244 3097 1772 3097 
Q 1472 3097 1187 3025 
Q 903 2953 641 2809 
L 641 3341 
Q 956 3463 1253 3523 
Q 1550 3584 1831 3584 
Q 2591 3584 2966 3190 
Q 3341 2797 3341 1997 
z
" transform="scale(0.015625)"/>
       <path id="DejaVuSans-6e" d="M 3513 2113 
L 3513 0 
L 2938 0 
L 2938 2094 
Q 2938 2591 2744 2837 
Q 2550 3084 2163 3084 
Q 1697 3084 1428 2787 
Q 1159 2491 1159 1978 
L 1159 0 
L 581 0 
L 581 3500 
L 1159 3500 
L 1159 2956 
Q 1366 3272 1645 3428 
Q 1925 3584 2291 3584 
Q 2894 3584 3203 3211 
Q 3513 2838 3513 2113 
z
" transform="scale(0.015625)"/>
       <path id="DejaVuSans-74" d="M 1172 4494 
L 1172 3500 
L 2356 3500 
L 2356 3053 
L 1172 3053 
L 1172 1153 
Q 1172 725 1289 603 
Q 1406 481 1766 481 
L 2356 481 
L 2356 0 
L 1766 0 
Q 1100 0 847 248 
Q 594 497 594 1153 
L 594 3053 
L 172 3053 
L 172 3500 
L 594 3500 
L 594 4494 
L 1172 4494 
z
" transform="scale(0.015625)"/>
       <path id="DejaVuSans-20" transform="scale(0.015625)"/>
       <path id="DejaVuSans-64" d="M 2906 2969 
L 2906 4863 
L 3481 4863 
L 3481 0 
L 2906 0 
L 2906 525 
Q 2725 213 2448 61 
Q 2172 -91 1784 -91 
Q 1150 -91 751 415 
Q 353 922 353 1747 
Q 353 2572 751 3078 
Q 1150 3584 1784 3584 
Q 2172 3584 2448 3432 
Q 2725 3281 2906 2969 
z
M 947 1747 
Q 947 1113 1208 752 
Q 1469 391 1925 391 
Q 2381 391 2643 752 
Q 2906 1113 2906 1747 
Q 2906 2381 2643 2742 
Q 2381 3103 1925 3103 
Q 1469 3103 1208 2742 
Q 947 2381 947 1747 
z
" transform="scale(0.015625)"/>
       <path id="DejaVuSans-65" d="M 3597 1894 
L 3597 1613 
L 953 1613 
Q 991 1019 1311 708 
Q 1631 397 2203 397 
Q 2534 397 2845 478 
Q 3156 559 3463 722 
L 3463 178 
Q 3153 47 2828 -22 
Q 2503 -91 2169 -91 
Q 1331 -91 842 396 
Q 353 884 353 1716 
Q 353 2575 817 3079 
Q 1281 3584 2069 3584 
Q 2775 3584 3186 3129 
Q 3597 2675 3597 1894 
z
M 3022 2063 
Q 3016 2534 2758 2815 
Q 2500 3097 2075 3097 
Q 1594 3097 1305 2825 
Q 1016 2553 972 2059 
L 3022 2063 
z
" transform="scale(0.015625)"/>
       <path id="DejaVuSans-70" d="M 1159 525 
L 1159 -1331 
L 581 -1331 
L 581 3500 
L 1159 3500 
L 1159 2969 
Q 1341 3281 1617 3432 
Q 1894 3584 2278 3584 
Q 2916 3584 3314 3078 
Q 3713 2572 3713 1747 
Q 3713 922 3314 415 
Q 2916 -91 2278 -91 
Q 1894 -91 1617 61 
Q 1341 213 1159 525 
z
M 3116 1747 
Q 3116 2381 2855 2742 
Q 2594 3103 2138 3103 
Q 1681 3103 1420 2742 
Q 1159 2381 1159 1747 
Q 1159 1113 1420 752 
Q 1681 391 2138 391 
Q 2594 391 2855 752 
Q 3116 1113 3116 1747 
z
" transform="scale(0.015625)"/>
       <path id="DejaVuSans-68" d="M 3513 2113 
L 3513 0 
L 2938 0 
L 2938 2094 
Q 2938 2591 2744 2837 
Q 2550 3084 2163 3084 
Q 1697 3084 1428 2787 
Q 1159 2491 1159 1978 
L 1159 0 
L 581 0 
L 581 4863 
L 1159 4863 
L 1159 2956 
Q 1366 3272 1645 3428 
Q 1925 3584 2291 3584 
Q 2894 3584 3203 3211 
Q 3513 2838 3513 2113 
z
" transform="scale(0.015625)"/>
       <path id="DejaVuSans-5b" d="M 550 4863 
L 1875 4863 
L 1875 4416 
L 1125 4416 
L 1125 -397 
L 1875 -397 
L 1875 -844 
L 550 -844 
L 550 4863 
z
" transform="scale(0.015625)"/>
       <path id="DejaVuSans-6d" d="M 3328 2828 
Q 3544 3216 3844 3400 
Q 4144 3584 4550 3584 
Q 5097 3584 5394 3201 
Q 5691 2819 5691 2113 
L 5691 0 
L 5113 0 
L 5113 2094 
Q 5113 2597 4934 2840 
Q 4756 3084 4391 3084 
Q 3944 3084 3684 2787 
Q 3425 2491 3425 1978 
L 3425 0 
L 2847 0 
L 2847 2094 
Q 2847 2600 2669 2842 
Q 2491 3084 2119 3084 
Q 1678 3084 1418 2786 
Q 1159 2488 1159 1978 
L 1159 0 
L 581 0 
L 581 3500 
L 1159 3500 
L 1159 2956 
Q 1356 3278 1631 3431 
Q 1906 3584 2284 3584 
Q 2666 3584 2933 3390 
Q 3200 3197 3328 2828 
z
" transform="scale(0.015625)"/>
       <path id="DejaVuSans-77" d="M 269 3500 
L 844 3500 
L 1563 769 
L 2278 3500 
L 2956 3500 
L 3675 769 
L 4391 3500 
L 4966 3500 
L 4050 0 
L 3372 0 
L 2619 2869 
L 1863 0 
L 1184 0 
L 269 3500 
z
" transform="scale(0.015625)"/>
       <path id="DejaVuSans-2e" d="M 684 794 
L 1344 794 
L 1344 0 
L 684 0 
L 684 794 
z
" transform="scale(0.015625)"/>
       <path id="DejaVuSans-5d" d="M 1947 4863 
L 1947 -844 
L 622 -844 
L 622 -397 
L 1369 -397 
L 1369 4416 
L 622 4416 
L 622 4863 
L 1947 4863 
z
" transform="scale(0.015625)"/>
      </defs>
      <use xlink:href="#DejaVuSans-53"/>
      <use xlink:href="#DejaVuSans-6c" x="63.476562"/>
      <use xlink:href="#DejaVuSans-61" x="91.259766"/>
      <use xlink:href="#DejaVuSans-6e" x="152.539062"/>
      <use xlink:href="#DejaVuSans-74" x="215.917969"/>
      <use xlink:href="#DejaVuSans-20" x="255.126953"/>
      <use xlink:href="#DejaVuSans-64" x="286.914062"/>
      <use xlink:href="#DejaVuSans-65" x="350.390625"/>
      <use xlink:href="#DejaVuSans-70" x="411.914062"/>
      <use xlink:href="#DejaVuSans-74" x="475.390625"/>
      <use xlink:href="#DejaVuSans-68" x="514.599609"/>
      <use xlink:href="#DejaVuSans-20" x="577.978516"/>
      <use xlink:href="#DejaVuSans-5b" x="609.765625"/>
      <use xlink:href="#DejaVuSans-6d" x="648.779297"/>
      <use xlink:href="#DejaVuSans-20" x="746.191406"/>
      <use xlink:href="#DejaVuSans-77" x="777.978516"/>
      <use xlink:href="#DejaVuSans-2e" x="850.640625"/>
      <use xlink:href="#DejaVuSans-65" x="882.427734"/>
      <use xlink:href="#DejaVuSans-2e" x="943.951172"/>
      <use xlink:href="#DejaVuSans-5d" x="975.738281"/>
     </g>
    </g>
   </g>
   <g id="matplotlib.axis_2">
    <g id="ytick_1">
     <g id="line2d_15">
      <path d="M 93.2 458.318437 
L 651.2 458.318437 
" clip-path="url(#p44fa4f9d45)" style="fill: none; stroke: #b0b0b0; stroke-width: 0.8; stroke-linecap: square"/>
     </g>
     <g id="line2d_16">
      <defs>
       <path id="m3823a3bdd5" d="M 0 0 
L -3.5 0 
" style="stroke: #000000; stroke-width: 0.8"/>
      </defs>
      <g>
       <use xlink:href="#m3823a3bdd5" x="93.2" y="458.318437" style="stroke: #000000; stroke-width: 0.8"/>
      </g>
     </g>
     <g id="text_9">
      <!-- $\mathdefault{10^{-6}}$ -->
      <g transform="translate(39.2 465.916875) scale(0.2 -0.2)">
       <defs>
        <path id="DejaVuSans-2212" d="M 678 2272 
L 4684 2272 
L 4684 1741 
L 678 1741 
L 678 2272 
z
" transform="scale(0.015625)"/>
       </defs>
       <use xlink:href="#DejaVuSans-31" transform="translate(0 0.765625)"/>
       <use xlink:href="#DejaVuSans-30" transform="translate(63.623047 0.765625)"/>
       <use xlink:href="#DejaVuSans-2212" transform="translate(128.203125 39.046875) scale(0.7)"/>
       <use xlink:href="#DejaVuSans-36" transform="translate(186.855469 39.046875) scale(0.7)"/>
      </g>
     </g>
    </g>
    <g id="ytick_2">
     <g id="line2d_17">
      <path d="M 93.2 347.438437 
L 651.2 347.438437 
" clip-path="url(#p44fa4f9d45)" style="fill: none; stroke: #b0b0b0; stroke-width: 0.8; stroke-linecap: square"/>
     </g>
     <g id="line2d_18">
      <g>
       <use xlink:href="#m3823a3bdd5" x="93.2" y="347.438437" style="stroke: #000000; stroke-width: 0.8"/>
      </g>
     </g>
     <g id="text_10">
      <!-- $\mathdefault{10^{-5}}$ -->
      <g transform="translate(39.2 355.036875) scale(0.2 -0.2)">
       <defs>
        <path id="DejaVuSans-35" d="M 691 4666 
L 3169 4666 
L 3169 4134 
L 1269 4134 
L 1269 2991 
Q 1406 3038 1543 3061 
Q 1681 3084 1819 3084 
Q 2600 3084 3056 2656 
Q 3513 2228 3513 1497 
Q 3513 744 3044 326 
Q 2575 -91 1722 -91 
Q 1428 -91 1123 -41 
Q 819 9 494 109 
L 494 744 
Q 775 591 1075 516 
Q 1375 441 1709 441 
Q 2250 441 2565 725 
Q 2881 1009 2881 1497 
Q 2881 1984 2565 2268 
Q 2250 2553 1709 2553 
Q 1456 2553 1204 2497 
Q 953 2441 691 2322 
L 691 4666 
z
" transform="scale(0.015625)"/>
       </defs>
       <use xlink:href="#DejaVuSans-31" transform="translate(0 0.684375)"/>
       <use xlink:href="#DejaVuSans-30" transform="translate(63.623047 0.684375)"/>
       <use xlink:href="#DejaVuSans-2212" transform="translate(128.203125 38.965625) scale(0.7)"/>
       <use xlink:href="#DejaVuSans-35" transform="translate(186.855469 38.965625) scale(0.7)"/>
      </g>
     </g>
    </g>
    <g id="ytick_3">
     <g id="line2d_19">
      <path d="M 93.2 236.558437 
L 651.2 236.558437 
" clip-path="url(#p44fa4f9d45)" style="fill: none; stroke: #b0b0b0; stroke-width: 0.8; stroke-linecap: square"/>
     </g>
     <g id="line2d_20">
      <g>
       <use xlink:href="#m3823a3bdd5" x="93.2" y="236.558437" style="stroke: #000000; stroke-width: 0.8"/>
      </g>
     </g>
     <g id="text_11">
      <!-- $\mathdefault{10^{-4}}$ -->
      <g transform="translate(39.2 244.156875) scale(0.2 -0.2)">
       <use xlink:href="#DejaVuSans-31" transform="translate(0 0.684375)"/>
       <use xlink:href="#DejaVuSans-30" transform="translate(63.623047 0.684375)"/>
       <use xlink:href="#DejaVuSans-2212" transform="translate(128.203125 38.965625) scale(0.7)"/>
       <use xlink:href="#DejaVuSans-34" transform="translate(186.855469 38.965625) scale(0.7)"/>
      </g>
     </g>
    </g>
    <g id="ytick_4">
     <g id="line2d_21">
      <path d="M 93.2 125.678437 
L 651.2 125.678437 
" clip-path="url(#p44fa4f9d45)" style="fill: none; stroke: #b0b0b0; stroke-width: 0.8; stroke-linecap: square"/>
     </g>
     <g id="line2d_22">
      <g>
       <use xlink:href="#m3823a3bdd5" x="93.2" y="125.678437" style="stroke: #000000; stroke-width: 0.8"/>
      </g>
     </g>
     <g id="text_12">
      <!-- $\mathdefault{10^{-3}}$ -->
      <g transform="translate(39.2 133.276875) scale(0.2 -0.2)">
       <defs>
        <path id="DejaVuSans-33" d="M 2597 2516 
Q 3050 2419 3304 2112 
Q 3559 1806 3559 1356 
Q 3559 666 3084 287 
Q 2609 -91 1734 -91 
Q 1441 -91 1130 -33 
Q 819 25 488 141 
L 488 750 
Q 750 597 1062 519 
Q 1375 441 1716 441 
Q 2309 441 2620 675 
Q 2931 909 2931 1356 
Q 2931 1769 2642 2001 
Q 2353 2234 1838 2234 
L 1294 2234 
L 1294 2753 
L 1863 2753 
Q 2328 2753 2575 2939 
Q 2822 3125 2822 3475 
Q 2822 3834 2567 4026 
Q 2313 4219 1838 4219 
Q 1578 4219 1281 4162 
Q 984 4106 628 3988 
L 628 4550 
Q 988 4650 1302 4700 
Q 1616 4750 1894 4750 
Q 2613 4750 3031 4423 
Q 3450 4097 3450 3541 
Q 3450 3153 3228 2886 
Q 3006 2619 2597 2516 
z
" transform="scale(0.015625)"/>
       </defs>
       <use xlink:href="#DejaVuSans-31" transform="translate(0 0.765625)"/>
       <use xlink:href="#DejaVuSans-30" transform="translate(63.623047 0.765625)"/>
       <use xlink:href="#DejaVuSans-2212" transform="translate(128.203125 39.046875) scale(0.7)"/>
       <use xlink:href="#DejaVuSans-33" transform="translate(186.855469 39.046875) scale(0.7)"/>
      </g>
     </g>
    </g>
    <g id="ytick_5">
     <g id="line2d_23">
      <path d="M 93.2 14.798437 
L 651.2 14.798437 
" clip-path="url(#p44fa4f9d45)" style="fill: none; stroke: #b0b0b0; stroke-width: 0.8; stroke-linecap: square"/>
     </g>
     <g id="line2d_24">
      <g>
       <use xlink:href="#m3823a3bdd5" x="93.2" y="14.798437" style="stroke: #000000; stroke-width: 0.8"/>
      </g>
     </g>
     <g id="text_13">
      <!-- $\mathdefault{10^{-2}}$ -->
      <g transform="translate(39.2 22.396875) scale(0.2 -0.2)">
       <use xlink:href="#DejaVuSans-31" transform="translate(0 0.765625)"/>
       <use xlink:href="#DejaVuSans-30" transform="translate(63.623047 0.765625)"/>
       <use xlink:href="#DejaVuSans-2212" transform="translate(128.203125 39.046875) scale(0.7)"/>
       <use xlink:href="#DejaVuSans-32" transform="translate(186.855469 39.046875) scale(0.7)"/>
      </g>
     </g>
    </g>
    <g id="ytick_6">
     <g id="line2d_25">
      <defs>
       <path id="m53b4e42e76" d="M 0 0 
L -2 0 
" style="stroke: #000000; stroke-width: 0.6"/>
      </defs>
      <g>
       <use xlink:href="#m53b4e42e76" x="93.2" y="424.940232" style="stroke: #000000; stroke-width: 0.6"/>
      </g>
     </g>
    </g>
    <g id="ytick_7">
     <g id="line2d_26">
      <g>
       <use xlink:href="#m53b4e42e76" x="93.2" y="405.415233" style="stroke: #000000; stroke-width: 0.6"/>
      </g>
     </g>
    </g>
    <g id="ytick_8">
     <g id="line2d_27">
      <g>
       <use xlink:href="#m53b4e42e76" x="93.2" y="391.562026" style="stroke: #000000; stroke-width: 0.6"/>
      </g>
     </g>
    </g>
    <g id="ytick_9">
     <g id="line2d_28">
      <g>
       <use xlink:href="#m53b4e42e76" x="93.2" y="380.816643" style="stroke: #000000; stroke-width: 0.6"/>
      </g>
     </g>
    </g>
    <g id="ytick_10">
     <g id="line2d_29">
      <g>
       <use xlink:href="#m53b4e42e76" x="93.2" y="372.037027" style="stroke: #000000; stroke-width: 0.6"/>
      </g>
     </g>
    </g>
    <g id="ytick_11">
     <g id="line2d_30">
      <g>
       <use xlink:href="#m53b4e42e76" x="93.2" y="364.613967" style="stroke: #000000; stroke-width: 0.6"/>
      </g>
     </g>
    </g>
    <g id="ytick_12">
     <g id="line2d_31">
      <g>
       <use xlink:href="#m53b4e42e76" x="93.2" y="358.18382" style="stroke: #000000; stroke-width: 0.6"/>
      </g>
     </g>
    </g>
    <g id="ytick_13">
     <g id="line2d_32">
      <g>
       <use xlink:href="#m53b4e42e76" x="93.2" y="352.512028" style="stroke: #000000; stroke-width: 0.6"/>
      </g>
     </g>
    </g>
    <g id="ytick_14">
     <g id="line2d_33">
      <g>
       <use xlink:href="#m53b4e42e76" x="93.2" y="314.060232" style="stroke: #000000; stroke-width: 0.6"/>
      </g>
     </g>
    </g>
    <g id="ytick_15">
     <g id="line2d_34">
      <g>
       <use xlink:href="#m53b4e42e76" x="93.2" y="294.535233" style="stroke: #000000; stroke-width: 0.6"/>
      </g>
     </g>
    </g>
    <g id="ytick_16">
     <g id="line2d_35">
      <g>
       <use xlink:href="#m53b4e42e76" x="93.2" y="280.682026" style="stroke: #000000; stroke-width: 0.6"/>
      </g>
     </g>
    </g>
    <g id="ytick_17">
     <g id="line2d_36">
      <g>
       <use xlink:href="#m53b4e42e76" x="93.2" y="269.936643" style="stroke: #000000; stroke-width: 0.6"/>
      </g>
     </g>
    </g>
    <g id="ytick_18">
     <g id="line2d_37">
      <g>
       <use xlink:href="#m53b4e42e76" x="93.2" y="261.157027" style="stroke: #000000; stroke-width: 0.6"/>
      </g>
     </g>
    </g>
    <g id="ytick_19">
     <g id="line2d_38">
      <g>
       <use xlink:href="#m53b4e42e76" x="93.2" y="253.733967" style="stroke: #000000; stroke-width: 0.6"/>
      </g>
     </g>
    </g>
    <g id="ytick_20">
     <g id="line2d_39">
      <g>
       <use xlink:href="#m53b4e42e76" x="93.2" y="247.30382" style="stroke: #000000; stroke-width: 0.6"/>
      </g>
     </g>
    </g>
    <g id="ytick_21">
     <g id="line2d_40">
      <g>
       <use xlink:href="#m53b4e42e76" x="93.2" y="241.632028" style="stroke: #000000; stroke-width: 0.6"/>
      </g>
     </g>
    </g>
    <g id="ytick_22">
     <g id="line2d_41">
      <g>
       <use xlink:href="#m53b4e42e76" x="93.2" y="203.180232" style="stroke: #000000; stroke-width: 0.6"/>
      </g>
     </g>
    </g>
    <g id="ytick_23">
     <g id="line2d_42">
      <g>
       <use xlink:href="#m53b4e42e76" x="93.2" y="183.655233" style="stroke: #000000; stroke-width: 0.6"/>
      </g>
     </g>
    </g>
    <g id="ytick_24">
     <g id="line2d_43">
      <g>
       <use xlink:href="#m53b4e42e76" x="93.2" y="169.802026" style="stroke: #000000; stroke-width: 0.6"/>
      </g>
     </g>
    </g>
    <g id="ytick_25">
     <g id="line2d_44">
      <g>
       <use xlink:href="#m53b4e42e76" x="93.2" y="159.056643" style="stroke: #000000; stroke-width: 0.6"/>
      </g>
     </g>
    </g>
    <g id="ytick_26">
     <g id="line2d_45">
      <g>
       <use xlink:href="#m53b4e42e76" x="93.2" y="150.277027" style="stroke: #000000; stroke-width: 0.6"/>
      </g>
     </g>
    </g>
    <g id="ytick_27">
     <g id="line2d_46">
      <g>
       <use xlink:href="#m53b4e42e76" x="93.2" y="142.853967" style="stroke: #000000; stroke-width: 0.6"/>
      </g>
     </g>
    </g>
    <g id="ytick_28">
     <g id="line2d_47">
      <g>
       <use xlink:href="#m53b4e42e76" x="93.2" y="136.42382" style="stroke: #000000; stroke-width: 0.6"/>
      </g>
     </g>
    </g>
    <g id="ytick_29">
     <g id="line2d_48">
      <g>
       <use xlink:href="#m53b4e42e76" x="93.2" y="130.752028" style="stroke: #000000; stroke-width: 0.6"/>
      </g>
     </g>
    </g>
    <g id="ytick_30">
     <g id="line2d_49">
      <g>
       <use xlink:href="#m53b4e42e76" x="93.2" y="92.300232" style="stroke: #000000; stroke-width: 0.6"/>
      </g>
     </g>
    </g>
    <g id="ytick_31">
     <g id="line2d_50">
      <g>
       <use xlink:href="#m53b4e42e76" x="93.2" y="72.775233" style="stroke: #000000; stroke-width: 0.6"/>
      </g>
     </g>
    </g>
    <g id="ytick_32">
     <g id="line2d_51">
      <g>
       <use xlink:href="#m53b4e42e76" x="93.2" y="58.922026" style="stroke: #000000; stroke-width: 0.6"/>
      </g>
     </g>
    </g>
    <g id="ytick_33">
     <g id="line2d_52">
      <g>
       <use xlink:href="#m53b4e42e76" x="93.2" y="48.176643" style="stroke: #000000; stroke-width: 0.6"/>
      </g>
     </g>
    </g>
    <g id="ytick_34">
     <g id="line2d_53">
      <g>
       <use xlink:href="#m53b4e42e76" x="93.2" y="39.397027" style="stroke: #000000; stroke-width: 0.6"/>
      </g>
     </g>
    </g>
    <g id="ytick_35">
     <g id="line2d_54">
      <g>
       <use xlink:href="#m53b4e42e76" x="93.2" y="31.973967" style="stroke: #000000; stroke-width: 0.6"/>
      </g>
     </g>
    </g>
    <g id="ytick_36">
     <g id="line2d_55">
      <g>
       <use xlink:href="#m53b4e42e76" x="93.2" y="25.54382" style="stroke: #000000; stroke-width: 0.6"/>
      </g>
     </g>
    </g>
    <g id="ytick_37">
     <g id="line2d_56">
      <g>
       <use xlink:href="#m53b4e42e76" x="93.2" y="19.872028" style="stroke: #000000; stroke-width: 0.6"/>
      </g>
     </g>
    </g>
    <g id="text_14">
     <!-- Integrated muon flux [cm$^{-2}$ s$^{-1}$] -->
     <g transform="translate(29.95 438.933437) rotate(-90) scale(0.25 -0.25)">
      <defs>
       <path id="DejaVuSans-49" d="M 628 4666 
L 1259 4666 
L 1259 0 
L 628 0 
L 628 4666 
z
" transform="scale(0.015625)"/>
       <path id="DejaVuSans-67" d="M 2906 1791 
Q 2906 2416 2648 2759 
Q 2391 3103 1925 3103 
Q 1463 3103 1205 2759 
Q 947 2416 947 1791 
Q 947 1169 1205 825 
Q 1463 481 1925 481 
Q 2391 481 2648 825 
Q 2906 1169 2906 1791 
z
M 3481 434 
Q 3481 -459 3084 -895 
Q 2688 -1331 1869 -1331 
Q 1566 -1331 1297 -1286 
Q 1028 -1241 775 -1147 
L 775 -588 
Q 1028 -725 1275 -790 
Q 1522 -856 1778 -856 
Q 2344 -856 2625 -561 
Q 2906 -266 2906 331 
L 2906 616 
Q 2728 306 2450 153 
Q 2172 0 1784 0 
Q 1141 0 747 490 
Q 353 981 353 1791 
Q 353 2603 747 3093 
Q 1141 3584 1784 3584 
Q 2172 3584 2450 3431 
Q 2728 3278 2906 2969 
L 2906 3500 
L 3481 3500 
L 3481 434 
z
" transform="scale(0.015625)"/>
       <path id="DejaVuSans-72" d="M 2631 2963 
Q 2534 3019 2420 3045 
Q 2306 3072 2169 3072 
Q 1681 3072 1420 2755 
Q 1159 2438 1159 1844 
L 1159 0 
L 581 0 
L 581 3500 
L 1159 3500 
L 1159 2956 
Q 1341 3275 1631 3429 
Q 1922 3584 2338 3584 
Q 2397 3584 2469 3576 
Q 2541 3569 2628 3553 
L 2631 2963 
z
" transform="scale(0.015625)"/>
       <path id="DejaVuSans-75" d="M 544 1381 
L 544 3500 
L 1119 3500 
L 1119 1403 
Q 1119 906 1312 657 
Q 1506 409 1894 409 
Q 2359 409 2629 706 
Q 2900 1003 2900 1516 
L 2900 3500 
L 3475 3500 
L 3475 0 
L 2900 0 
L 2900 538 
Q 2691 219 2414 64 
Q 2138 -91 1772 -91 
Q 1169 -91 856 284 
Q 544 659 544 1381 
z
M 1991 3584 
L 1991 3584 
z
" transform="scale(0.015625)"/>
       <path id="DejaVuSans-6f" d="M 1959 3097 
Q 1497 3097 1228 2736 
Q 959 2375 959 1747 
Q 959 1119 1226 758 
Q 1494 397 1959 397 
Q 2419 397 2687 759 
Q 2956 1122 2956 1747 
Q 2956 2369 2687 2733 
Q 2419 3097 1959 3097 
z
M 1959 3584 
Q 2709 3584 3137 3096 
Q 3566 2609 3566 1747 
Q 3566 888 3137 398 
Q 2709 -91 1959 -91 
Q 1206 -91 779 398 
Q 353 888 353 1747 
Q 353 2609 779 3096 
Q 1206 3584 1959 3584 
z
" transform="scale(0.015625)"/>
       <path id="DejaVuSans-66" d="M 2375 4863 
L 2375 4384 
L 1825 4384 
Q 1516 4384 1395 4259 
Q 1275 4134 1275 3809 
L 1275 3500 
L 2222 3500 
L 2222 3053 
L 1275 3053 
L 1275 0 
L 697 0 
L 697 3053 
L 147 3053 
L 147 3500 
L 697 3500 
L 697 3744 
Q 697 4328 969 4595 
Q 1241 4863 1831 4863 
L 2375 4863 
z
" transform="scale(0.015625)"/>
       <path id="DejaVuSans-78" d="M 3513 3500 
L 2247 1797 
L 3578 0 
L 2900 0 
L 1881 1375 
L 863 0 
L 184 0 
L 1544 1831 
L 300 3500 
L 978 3500 
L 1906 2253 
L 2834 3500 
L 3513 3500 
z
" transform="scale(0.015625)"/>
       <path id="DejaVuSans-63" d="M 3122 3366 
L 3122 2828 
Q 2878 2963 2633 3030 
Q 2388 3097 2138 3097 
Q 1578 3097 1268 2742 
Q 959 2388 959 1747 
Q 959 1106 1268 751 
Q 1578 397 2138 397 
Q 2388 397 2633 464 
Q 2878 531 3122 666 
L 3122 134 
Q 2881 22 2623 -34 
Q 2366 -91 2075 -91 
Q 1284 -91 818 406 
Q 353 903 353 1747 
Q 353 2603 823 3093 
Q 1294 3584 2113 3584 
Q 2378 3584 2631 3529 
Q 2884 3475 3122 3366 
z
" transform="scale(0.015625)"/>
       <path id="DejaVuSans-73" d="M 2834 3397 
L 2834 2853 
Q 2591 2978 2328 3040 
Q 2066 3103 1784 3103 
Q 1356 3103 1142 2972 
Q 928 2841 928 2578 
Q 928 2378 1081 2264 
Q 1234 2150 1697 2047 
L 1894 2003 
Q 2506 1872 2764 1633 
Q 3022 1394 3022 966 
Q 3022 478 2636 193 
Q 2250 -91 1575 -91 
Q 1294 -91 989 -36 
Q 684 19 347 128 
L 347 722 
Q 666 556 975 473 
Q 1284 391 1588 391 
Q 1994 391 2212 530 
Q 2431 669 2431 922 
Q 2431 1156 2273 1281 
Q 2116 1406 1581 1522 
L 1381 1569 
Q 847 1681 609 1914 
Q 372 2147 372 2553 
Q 372 3047 722 3315 
Q 1072 3584 1716 3584 
Q 2034 3584 2315 3537 
Q 2597 3491 2834 3397 
z
" transform="scale(0.015625)"/>
      </defs>
      <use xlink:href="#DejaVuSans-49" transform="translate(0 0.765625)"/>
      <use xlink:href="#DejaVuSans-6e" transform="translate(29.492188 0.765625)"/>
      <use xlink:href="#DejaVuSans-74" transform="translate(92.871094 0.765625)"/>
      <use xlink:href="#DejaVuSans-65" transform="translate(132.080078 0.765625)"/>
      <use xlink:href="#DejaVuSans-67" transform="translate(193.603516 0.765625)"/>
      <use xlink:href="#DejaVuSans-72" transform="translate(257.080078 0.765625)"/>
      <use xlink:href="#DejaVuSans-61" transform="translate(298.193359 0.765625)"/>
      <use xlink:href="#DejaVuSans-74" transform="translate(359.472656 0.765625)"/>
      <use xlink:href="#DejaVuSans-65" transform="translate(398.681641 0.765625)"/>
      <use xlink:href="#DejaVuSans-64" transform="translate(460.205078 0.765625)"/>
      <use xlink:href="#DejaVuSans-20" transform="translate(523.681641 0.765625)"/>
      <use xlink:href="#DejaVuSans-6d" transform="translate(555.46875 0.765625)"/>
      <use xlink:href="#DejaVuSans-75" transform="translate(652.880859 0.765625)"/>
      <use xlink:href="#DejaVuSans-6f" transform="translate(716.259766 0.765625)"/>
      <use xlink:href="#DejaVuSans-6e" transform="translate(777.441406 0.765625)"/>
      <use xlink:href="#DejaVuSans-20" transform="translate(840.820312 0.765625)"/>
      <use xlink:href="#DejaVuSans-66" transform="translate(872.607422 0.765625)"/>
      <use xlink:href="#DejaVuSans-6c" transform="translate(907.8125 0.765625)"/>
      <use xlink:href="#DejaVuSans-75" transform="translate(935.595703 0.765625)"/>
      <use xlink:href="#DejaVuSans-78" transform="translate(998.974609 0.765625)"/>
      <use xlink:href="#DejaVuSans-20" transform="translate(1058.154297 0.765625)"/>
      <use xlink:href="#DejaVuSans-5b" transform="translate(1089.941406 0.765625)"/>
      <use xlink:href="#DejaVuSans-63" transform="translate(1128.955078 0.765625)"/>
      <use xlink:href="#DejaVuSans-6d" transform="translate(1183.935547 0.765625)"/>
      <use xlink:href="#DejaVuSans-2212" transform="translate(1282.304688 39.046875) scale(0.7)"/>
      <use xlink:href="#DejaVuSans-32" transform="translate(1340.957031 39.046875) scale(0.7)"/>
      <use xlink:href="#DejaVuSans-20" transform="translate(1388.227539 0.765625)"/>
      <use xlink:href="#DejaVuSans-73" transform="translate(1420.014648 0.765625)"/>
      <use xlink:href="#DejaVuSans-2212" transform="translate(1473.071289 39.046875) scale(0.7)"/>
      <use xlink:href="#DejaVuSans-31" transform="translate(1531.723633 39.046875) scale(0.7)"/>
      <use xlink:href="#DejaVuSans-5d" transform="translate(1578.994141 0.765625)"/>
     </g>
    </g>
   </g>
   <g id="line2d_57">
    <path d="M 93.221196 -1 
L 97.85 199.073823 
L 144.35 262.199023 
L 190.85 293.252257 
L 237.35 311.636544 
L 283.85 314.989188 
L 330.35 344.562088 
L 376.85 365.044248 
L 423.35 384.719585 
L 469.85 403.433584 
L 516.35 420.839964 
L 562.85 436.437998 
L 609.35 450.259798 
L 655.85 463.752405 
L 684.85 471.940366 
" clip-path="url(#p44fa4f9d45)" style="fill: none; stroke: #0000ff; stroke-width: 4; stroke-linecap: square"/>
    <defs>
     <path id="m4c5a8cc10e" d="M -0.49999 0.49999 
L 0.50001 0.49999 
L 0.50001 -0.50001 
L -0.49999 -0.50001 
z
"/>
    </defs>
    <g clip-path="url(#p44fa4f9d45)">
     <use xlink:href="#m4c5a8cc10e" x="93.221196" y="-1" style="fill: #0000ff"/>
     <use xlink:href="#m4c5a8cc10e" x="97.85" y="199.073823" style="fill: #0000ff"/>
     <use xlink:href="#m4c5a8cc10e" x="144.35" y="262.199023" style="fill: #0000ff"/>
     <use xlink:href="#m4c5a8cc10e" x="190.85" y="293.252257" style="fill: #0000ff"/>
     <use xlink:href="#m4c5a8cc10e" x="237.35" y="311.636544" style="fill: #0000ff"/>
     <use xlink:href="#m4c5a8cc10e" x="283.85" y="314.989188" style="fill: #0000ff"/>
     <use xlink:href="#m4c5a8cc10e" x="330.35" y="344.562088" style="fill: #0000ff"/>
     <use xlink:href="#m4c5a8cc10e" x="376.85" y="365.044248" style="fill: #0000ff"/>
     <use xlink:href="#m4c5a8cc10e" x="423.35" y="384.719585" style="fill: #0000ff"/>
     <use xlink:href="#m4c5a8cc10e" x="469.85" y="403.433584" style="fill: #0000ff"/>
     <use xlink:href="#m4c5a8cc10e" x="516.35" y="420.839964" style="fill: #0000ff"/>
     <use xlink:href="#m4c5a8cc10e" x="562.85" y="436.437998" style="fill: #0000ff"/>
     <use xlink:href="#m4c5a8cc10e" x="609.35" y="450.259798" style="fill: #0000ff"/>
     <use xlink:href="#m4c5a8cc10e" x="655.85" y="463.752405" style="fill: #0000ff"/>
     <use xlink:href="#m4c5a8cc10e" x="702.35" y="476.881377" style="fill: #0000ff"/>
     <use xlink:href="#m4c5a8cc10e" x="748.85" y="489.579944" style="fill: #0000ff"/>
    </g>
   </g>
   <g id="line2d_58">
    <path d="M 93.2 289.585661 
L 97.85 291.066008 
L 144.35 305.809574 
L 190.85 320.436422 
L 237.35 334.933999 
L 283.85 349.287876 
L 330.35 363.481703 
L 376.85 377.497242 
L 423.35 391.314482 
L 469.85 404.911876 
L 516.35 418.266706 
L 562.85 431.355609 
L 609.35 444.155253 
L 655.85 456.643157 
L 684.85 464.223975 
" clip-path="url(#p44fa4f9d45)" style="fill: none; stroke: #808080; stroke-width: 2; stroke-linecap: square"/>
    <defs>
     <path id="m428f4da23e" d="M -0.49999 0.49999 
L 0.50001 0.49999 
L 0.50001 -0.50001 
L -0.49999 -0.50001 
z
"/>
    </defs>
    <g clip-path="url(#p44fa4f9d45)">
     <use xlink:href="#m428f4da23e" x="93.2" y="289.585661" style="fill: #808080"/>
     <use xlink:href="#m428f4da23e" x="97.85" y="291.066008" style="fill: #808080"/>
     <use xlink:href="#m428f4da23e" x="144.35" y="305.809574" style="fill: #808080"/>
     <use xlink:href="#m428f4da23e" x="190.85" y="320.436422" style="fill: #808080"/>
     <use xlink:href="#m428f4da23e" x="237.35" y="334.933999" style="fill: #808080"/>
     <use xlink:href="#m428f4da23e" x="283.85" y="349.287876" style="fill: #808080"/>
     <use xlink:href="#m428f4da23e" x="330.35" y="363.481703" style="fill: #808080"/>
     <use xlink:href="#m428f4da23e" x="376.85" y="377.497242" style="fill: #808080"/>
     <use xlink:href="#m428f4da23e" x="423.35" y="391.314482" style="fill: #808080"/>
     <use xlink:href="#m428f4da23e" x="469.85" y="404.911876" style="fill: #808080"/>
     <use xlink:href="#m428f4da23e" x="516.35" y="418.266706" style="fill: #808080"/>
     <use xlink:href="#m428f4da23e" x="562.85" y="431.355609" style="fill: #808080"/>
     <use xlink:href="#m428f4da23e" x="609.35" y="444.155253" style="fill: #808080"/>
     <use xlink:href="#m428f4da23e" x="655.85" y="456.643157" style="fill: #808080"/>
     <use xlink:href="#m428f4da23e" x="702.35" y="468.798607" style="fill: #808080"/>
     <use xlink:href="#m428f4da23e" x="748.85" y="480.603629" style="fill: #808080"/>
    </g>
   </g>
   <g id="line2d_59">
    <path d="M 296.321086 458.318437 
L 296.321086 14.798437 
" clip-path="url(#p44fa4f9d45)" style="fill: none; stroke-dasharray: 4,6.6; stroke-dashoffset: 0; stroke: #ffa500; stroke-width: 4"/>
    <defs>
     <path id="mb6c945f127" d="M -0.49999 0.49999 
L 0.50001 0.49999 
L 0.50001 -0.50001 
L -0.49999 -0.50001 
z
"/>
    </defs>
    <g clip-path="url(#p44fa4f9d45)">
     <use xlink:href="#mb6c945f127" x="296.321086" y="458.318437" style="fill: #ffa500"/>
     <use xlink:href="#mb6c945f127" x="296.321086" y="14.798437" style="fill: #ffa500"/>
    </g>
   </g>
   <g id="line2d_60">
    <path d="M 372.709324 458.318437 
L 372.709324 14.798437 
" clip-path="url(#p44fa4f9d45)" style="fill: none; stroke-dasharray: 4,6.6; stroke-dashoffset: 0; stroke: #ff0000; stroke-width: 4"/>
    <defs>
     <path id="m43f9dfefd8" d="M -0.49999 0.49999 
L 0.50001 0.49999 
L 0.50001 -0.50001 
L -0.49999 -0.50001 
z
"/>
    </defs>
    <g clip-path="url(#p44fa4f9d45)">
     <use xlink:href="#m43f9dfefd8" x="372.709324" y="458.318437" style="fill: #ff0000"/>
     <use xlink:href="#m43f9dfefd8" x="372.709324" y="14.798437" style="fill: #ff0000"/>
    </g>
   </g>
   <g id="patch_3">
    <path d="M 93.2 458.318437 
L 93.2 14.798437 
" style="fill: none; stroke: #000000; stroke-width: 0.8; stroke-linejoin: miter; stroke-linecap: square"/>
   </g>
   <g id="patch_4">
    <path d="M 651.2 458.318437 
L 651.2 14.798437 
" style="fill: none; stroke: #000000; stroke-width: 0.8; stroke-linejoin: miter; stroke-linecap: square"/>
   </g>
   <g id="patch_5">
    <path d="M 93.2 458.318437 
L 651.2 458.318437 
" style="fill: none; stroke: #000000; stroke-width: 0.8; stroke-linejoin: miter; stroke-linecap: square"/>
   </g>
   <g id="patch_6">
    <path d="M 93.2 14.798437 
L 651.2 14.798437 
" style="fill: none; stroke: #000000; stroke-width: 0.8; stroke-linejoin: miter; stroke-linecap: square"/>
   </g>
   <g id="legend_1">
    <g id="patch_7">
     <path d="M 123.951875 128.616375 
L 638.6 128.616375 
Q 642.2 128.616375 642.2 125.016375 
L 642.2 27.398438 
Q 642.2 23.798437 638.6 23.798437 
L 123.951875 23.798437 
Q 120.351875 23.798437 120.351875 27.398438 
L 120.351875 125.016375 
Q 120.351875 128.616375 123.951875 128.616375 
z
" style="fill: #ffffff; opacity: 0.8; stroke: #cccccc; stroke-linejoin: miter"/>
    </g>
    <g id="patch_8">
     <path d="M 127.551875 56.625375 
L 163.551875 56.625375 
L 163.551875 44.025375 
L 127.551875 44.025375 
z
" style="fill: url(#h72f9b28bbf); fill-opacity: 0.1; stroke: #0000ff; stroke-opacity: 0.1; stroke-linejoin: miter"/>
    </g>
    <g id="text_15">
     <!-- shallow interpolation -->
     <g transform="translate(177.951875 44.675625) scale(0.18 -0.18)">
      <defs>
       <path id="DejaVuSans-69" d="M 603 3500 
L 1178 3500 
L 1178 0 
L 603 0 
L 603 3500 
z
M 603 4863 
L 1178 4863 
L 1178 4134 
L 603 4134 
L 603 4863 
z
" transform="scale(0.015625)"/>
      </defs>
      <use xlink:href="#DejaVuSans-73"/>
      <use xlink:href="#DejaVuSans-68" x="52.099609"/>
      <use xlink:href="#DejaVuSans-61" x="115.478516"/>
      <use xlink:href="#DejaVuSans-6c" x="176.757812"/>
      <use xlink:href="#DejaVuSans-6c" x="204.541016"/>
      <use xlink:href="#DejaVuSans-6f" x="232.324219"/>
      <use xlink:href="#DejaVuSans-77" x="293.505859"/>
      <use xlink:href="#DejaVuSans-20" x="375.292969"/>
      <use xlink:href="#DejaVuSans-69" x="407.080078"/>
      <use xlink:href="#DejaVuSans-6e" x="434.863281"/>
      <use xlink:href="#DejaVuSans-74" x="498.242188"/>
      <use xlink:href="#DejaVuSans-65" x="537.451172"/>
      <use xlink:href="#DejaVuSans-72" x="598.974609"/>
      <use xlink:href="#DejaVuSans-70" x="640.087891"/>
      <use xlink:href="#DejaVuSans-6f" x="703.564453"/>
      <use xlink:href="#DejaVuSans-6c" x="764.746094"/>
      <use xlink:href="#DejaVuSans-61" x="792.529297"/>
      <use xlink:href="#DejaVuSans-74" x="853.808594"/>
      <use xlink:href="#DejaVuSans-69" x="893.017578"/>
      <use xlink:href="#DejaVuSans-6f" x="920.800781"/>
      <use xlink:href="#DejaVuSans-6e" x="981.982422"/>
     </g>
     <!-- (less trustworthy) -->
     <g transform="translate(177.951875 64.831687) scale(0.18 -0.18)">
      <defs>
       <path id="DejaVuSans-28" d="M 1984 4856 
Q 1566 4138 1362 3434 
Q 1159 2731 1159 2009 
Q 1159 1288 1364 580 
Q 1569 -128 1984 -844 
L 1484 -844 
Q 1016 -109 783 600 
Q 550 1309 550 2009 
Q 550 2706 781 3412 
Q 1013 4119 1484 4856 
L 1984 4856 
z
" transform="scale(0.015625)"/>
       <path id="DejaVuSans-79" d="M 2059 -325 
Q 1816 -950 1584 -1140 
Q 1353 -1331 966 -1331 
L 506 -1331 
L 506 -850 
L 844 -850 
Q 1081 -850 1212 -737 
Q 1344 -625 1503 -206 
L 1606 56 
L 191 3500 
L 800 3500 
L 1894 763 
L 2988 3500 
L 3597 3500 
L 2059 -325 
z
" transform="scale(0.015625)"/>
       <path id="DejaVuSans-29" d="M 513 4856 
L 1013 4856 
Q 1481 4119 1714 3412 
Q 1947 2706 1947 2009 
Q 1947 1309 1714 600 
Q 1481 -109 1013 -844 
L 513 -844 
Q 928 -128 1133 580 
Q 1338 1288 1338 2009 
Q 1338 2731 1133 3434 
Q 928 4138 513 4856 
z
" transform="scale(0.015625)"/>
      </defs>
      <use xlink:href="#DejaVuSans-28"/>
      <use xlink:href="#DejaVuSans-6c" x="39.013672"/>
      <use xlink:href="#DejaVuSans-65" x="66.796875"/>
      <use xlink:href="#DejaVuSans-73" x="128.320312"/>
      <use xlink:href="#DejaVuSans-73" x="180.419922"/>
      <use xlink:href="#DejaVuSans-20" x="232.519531"/>
      <use xlink:href="#DejaVuSans-74" x="264.306641"/>
      <use xlink:href="#DejaVuSans-72" x="303.515625"/>
      <use xlink:href="#DejaVuSans-75" x="344.628906"/>
      <use xlink:href="#DejaVuSans-73" x="408.007812"/>
      <use xlink:href="#DejaVuSans-74" x="460.107422"/>
      <use xlink:href="#DejaVuSans-77" x="499.316406"/>
      <use xlink:href="#DejaVuSans-6f" x="581.103516"/>
      <use xlink:href="#DejaVuSans-72" x="642.285156"/>
      <use xlink:href="#DejaVuSans-74" x="683.398438"/>
      <use xlink:href="#DejaVuSans-68" x="722.607422"/>
      <use xlink:href="#DejaVuSans-79" x="785.986328"/>
      <use xlink:href="#DejaVuSans-29" x="845.166016"/>
     </g>
    </g>
    <g id="line2d_61">
     <path d="M 127.551875 84.952312 
L 145.551875 84.952312 
L 163.551875 84.952312 
" style="fill: none; stroke: #0000ff; stroke-width: 4; stroke-linecap: square"/>
     <g>
      <use xlink:href="#m4c5a8cc10e" x="145.551875" y="84.952312" style="fill: #0000ff"/>
     </g>
    </g>
    <g id="text_16">
     <!-- MUTE -->
     <g transform="translate(177.951875 91.252312) scale(0.18 -0.18)">
      <defs>
       <path id="DejaVuSans-4d" d="M 628 4666 
L 1569 4666 
L 2759 1491 
L 3956 4666 
L 4897 4666 
L 4897 0 
L 4281 0 
L 4281 4097 
L 3078 897 
L 2444 897 
L 1241 4097 
L 1241 0 
L 628 0 
L 628 4666 
z
" transform="scale(0.015625)"/>
       <path id="DejaVuSans-55" d="M 556 4666 
L 1191 4666 
L 1191 1831 
Q 1191 1081 1462 751 
Q 1734 422 2344 422 
Q 2950 422 3222 751 
Q 3494 1081 3494 1831 
L 3494 4666 
L 4128 4666 
L 4128 1753 
Q 4128 841 3676 375 
Q 3225 -91 2344 -91 
Q 1459 -91 1007 375 
Q 556 841 556 1753 
L 556 4666 
z
" transform="scale(0.015625)"/>
       <path id="DejaVuSans-54" d="M -19 4666 
L 3928 4666 
L 3928 4134 
L 2272 4134 
L 2272 0 
L 1638 0 
L 1638 4134 
L -19 4134 
L -19 4666 
z
" transform="scale(0.015625)"/>
       <path id="DejaVuSans-45" d="M 628 4666 
L 3578 4666 
L 3578 4134 
L 1259 4134 
L 1259 2753 
L 3481 2753 
L 3481 2222 
L 1259 2222 
L 1259 531 
L 3634 531 
L 3634 0 
L 628 0 
L 628 4666 
z
" transform="scale(0.015625)"/>
      </defs>
      <use xlink:href="#DejaVuSans-4d"/>
      <use xlink:href="#DejaVuSans-55" x="86.279297"/>
      <use xlink:href="#DejaVuSans-54" x="159.472656"/>
      <use xlink:href="#DejaVuSans-45" x="220.556641"/>
     </g>
    </g>
    <g id="line2d_62">
     <path d="M 127.551875 111.372937 
L 145.551875 111.372937 
L 163.551875 111.372937 
" style="fill: none; stroke: #808080; stroke-width: 2; stroke-linecap: square"/>
     <g>
      <use xlink:href="#m428f4da23e" x="145.551875" y="111.372937" style="fill: #808080"/>
     </g>
    </g>
    <g id="text_17">
     <!-- Bugaev model -->
     <g transform="translate(177.951875 117.672937) scale(0.18 -0.18)">
      <defs>
       <path id="DejaVuSans-42" d="M 1259 2228 
L 1259 519 
L 2272 519 
Q 2781 519 3026 730 
Q 3272 941 3272 1375 
Q 3272 1813 3026 2020 
Q 2781 2228 2272 2228 
L 1259 2228 
z
M 1259 4147 
L 1259 2741 
L 2194 2741 
Q 2656 2741 2882 2914 
Q 3109 3088 3109 3444 
Q 3109 3797 2882 3972 
Q 2656 4147 2194 4147 
L 1259 4147 
z
M 628 4666 
L 2241 4666 
Q 2963 4666 3353 4366 
Q 3744 4066 3744 3513 
Q 3744 3084 3544 2831 
Q 3344 2578 2956 2516 
Q 3422 2416 3680 2098 
Q 3938 1781 3938 1306 
Q 3938 681 3513 340 
Q 3088 0 2303 0 
L 628 0 
L 628 4666 
z
" transform="scale(0.015625)"/>
       <path id="DejaVuSans-76" d="M 191 3500 
L 800 3500 
L 1894 563 
L 2988 3500 
L 3597 3500 
L 2284 0 
L 1503 0 
L 191 3500 
z
" transform="scale(0.015625)"/>
      </defs>
      <use xlink:href="#DejaVuSans-42"/>
      <use xlink:href="#DejaVuSans-75" x="68.603516"/>
      <use xlink:href="#DejaVuSans-67" x="131.982422"/>
      <use xlink:href="#DejaVuSans-61" x="195.458984"/>
      <use xlink:href="#DejaVuSans-65" x="256.738281"/>
      <use xlink:href="#DejaVuSans-76" x="318.261719"/>
      <use xlink:href="#DejaVuSans-20" x="377.441406"/>
      <use xlink:href="#DejaVuSans-6d" x="409.228516"/>
      <use xlink:href="#DejaVuSans-6f" x="506.640625"/>
      <use xlink:href="#DejaVuSans-64" x="567.822266"/>
      <use xlink:href="#DejaVuSans-65" x="631.298828"/>
      <use xlink:href="#DejaVuSans-6c" x="692.822266"/>
     </g>
    </g>
    <g id="line2d_63">
     <path d="M 402.11375 50.325375 
L 420.11375 50.325375 
L 438.11375 50.325375 
" style="fill: none; stroke-dasharray: 4,6.6; stroke-dashoffset: 0; stroke: #ffa500; stroke-width: 4"/>
     <g>
      <use xlink:href="#mb6c945f127" x="420.11375" y="50.325375" style="fill: #ffa500"/>
     </g>
    </g>
    <g id="text_18">
     <!-- deepest point -->
     <g transform="translate(452.51375 44.675625) scale(0.18 -0.18)">
      <use xlink:href="#DejaVuSans-64"/>
      <use xlink:href="#DejaVuSans-65" x="63.476562"/>
      <use xlink:href="#DejaVuSans-65" x="125"/>
      <use xlink:href="#DejaVuSans-70" x="186.523438"/>
      <use xlink:href="#DejaVuSans-65" x="250"/>
      <use xlink:href="#DejaVuSans-73" x="311.523438"/>
      <use xlink:href="#DejaVuSans-74" x="363.623047"/>
      <use xlink:href="#DejaVuSans-20" x="402.832031"/>
      <use xlink:href="#DejaVuSans-70" x="434.619141"/>
      <use xlink:href="#DejaVuSans-6f" x="498.095703"/>
      <use xlink:href="#DejaVuSans-69" x="559.277344"/>
      <use xlink:href="#DejaVuSans-6e" x="587.060547"/>
      <use xlink:href="#DejaVuSans-74" x="650.439453"/>
     </g>
     <!-- (explosives storage) -->
     <g transform="translate(452.51375 64.831687) scale(0.18 -0.18)">
      <use xlink:href="#DejaVuSans-28"/>
      <use xlink:href="#DejaVuSans-65" x="39.013672"/>
      <use xlink:href="#DejaVuSans-78" x="98.787109"/>
      <use xlink:href="#DejaVuSans-70" x="157.966797"/>
      <use xlink:href="#DejaVuSans-6c" x="221.443359"/>
      <use xlink:href="#DejaVuSans-6f" x="249.226562"/>
      <use xlink:href="#DejaVuSans-73" x="310.408203"/>
      <use xlink:href="#DejaVuSans-69" x="362.507812"/>
      <use xlink:href="#DejaVuSans-76" x="390.291016"/>
      <use xlink:href="#DejaVuSans-65" x="449.470703"/>
      <use xlink:href="#DejaVuSans-73" x="510.994141"/>
      <use xlink:href="#DejaVuSans-20" x="563.09375"/>
      <use xlink:href="#DejaVuSans-73" x="594.880859"/>
      <use xlink:href="#DejaVuSans-74" x="646.980469"/>
      <use xlink:href="#DejaVuSans-6f" x="686.189453"/>
      <use xlink:href="#DejaVuSans-72" x="747.371094"/>
      <use xlink:href="#DejaVuSans-61" x="788.484375"/>
      <use xlink:href="#DejaVuSans-67" x="849.763672"/>
      <use xlink:href="#DejaVuSans-65" x="913.240234"/>
      <use xlink:href="#DejaVuSans-29" x="974.763672"/>
     </g>
    </g>
    <g id="line2d_64">
     <path d="M 402.11375 96.902062 
L 420.11375 96.902062 
L 438.11375 96.902062 
" style="fill: none; stroke-dasharray: 4,6.6; stroke-dashoffset: 0; stroke: #ff0000; stroke-width: 4"/>
     <g>
      <use xlink:href="#m43f9dfefd8" x="420.11375" y="96.902062" style="fill: #ff0000"/>
     </g>
    </g>
    <g id="text_19">
     <!-- deepest point -->
     <g transform="translate(452.51375 91.252312) scale(0.18 -0.18)">
      <use xlink:href="#DejaVuSans-64"/>
      <use xlink:href="#DejaVuSans-65" x="63.476562"/>
      <use xlink:href="#DejaVuSans-65" x="125"/>
      <use xlink:href="#DejaVuSans-70" x="186.523438"/>
      <use xlink:href="#DejaVuSans-65" x="250"/>
      <use xlink:href="#DejaVuSans-73" x="311.523438"/>
      <use xlink:href="#DejaVuSans-74" x="363.623047"/>
      <use xlink:href="#DejaVuSans-20" x="402.832031"/>
      <use xlink:href="#DejaVuSans-70" x="434.619141"/>
      <use xlink:href="#DejaVuSans-6f" x="498.095703"/>
      <use xlink:href="#DejaVuSans-69" x="559.277344"/>
      <use xlink:href="#DejaVuSans-6e" x="587.060547"/>
      <use xlink:href="#DejaVuSans-74" x="650.439453"/>
     </g>
     <!-- (Kinga shaft) -->
     <g transform="translate(452.51375 111.408375) scale(0.18 -0.18)">
      <defs>
       <path id="DejaVuSans-4b" d="M 628 4666 
L 1259 4666 
L 1259 2694 
L 3353 4666 
L 4166 4666 
L 1850 2491 
L 4331 0 
L 3500 0 
L 1259 2247 
L 1259 0 
L 628 0 
L 628 4666 
z
" transform="scale(0.015625)"/>
      </defs>
      <use xlink:href="#DejaVuSans-28"/>
      <use xlink:href="#DejaVuSans-4b" x="39.013672"/>
      <use xlink:href="#DejaVuSans-69" x="104.589844"/>
      <use xlink:href="#DejaVuSans-6e" x="132.373047"/>
      <use xlink:href="#DejaVuSans-67" x="195.751953"/>
      <use xlink:href="#DejaVuSans-61" x="259.228516"/>
      <use xlink:href="#DejaVuSans-20" x="320.507812"/>
      <use xlink:href="#DejaVuSans-73" x="352.294922"/>
      <use xlink:href="#DejaVuSans-68" x="404.394531"/>
      <use xlink:href="#DejaVuSans-61" x="467.773438"/>
      <use xlink:href="#DejaVuSans-66" x="529.052734"/>
      <use xlink:href="#DejaVuSans-74" x="562.507812"/>
      <use xlink:href="#DejaVuSans-29" x="601.716797"/>
     </g>
    </g>
   </g>
  </g>
 </g>
 <defs>
  <clipPath id="p44fa4f9d45">
   <rect x="93.2" y="14.798437" width="558" height="443.52"/>
  </clipPath>
 </defs>
 <defs>
  <pattern id="h72f9b28bbf" patternUnits="userSpaceOnUse" x="0" y="0" width="72" height="72">
   <rect x="0" y="0" width="73" height="73" fill="#0000ff"/>
   <path d="M -36 36 
L 36 -36 
M -24 48 
L 48 -24 
M -12 60 
L 60 -12 
M 0 72 
L 72 0 
M 12 84 
L 84 12 
M 24 96 
L 96 24 
M 36 108 
L 108 36 
" style="fill: #0000ff; stroke: #0000ff; stroke-width: 1.0; stroke-linecap: butt; stroke-linejoin: miter; stroke-opacity: 0.1"/>
  </pattern>
 </defs>
</svg>
