<?xml version="1.0" encoding="utf-8" standalone="no"?>
<!DOCTYPE svg PUBLIC "-//W3C//DTD SVG 1.1//EN"
  "http://www.w3.org/Graphics/SVG/1.1/DTD/svg11.dtd">
<svg xmlns:xlink="http://www.w3.org/1999/xlink" width="675.254688pt" height="520.07pt" viewBox="0 0 675.254688 520.07" xmlns="http://www.w3.org/2000/svg" version="1.1">
 <metadata>
  <rdf:RDF xmlns:dc="http://purl.org/dc/elements/1.1/" xmlns:cc="http://creativecommons.org/ns#" xmlns:rdf="http://www.w3.org/1999/02/22-rdf-syntax-ns#">
   <cc:Work>
    <dc:type rdf:resource="http://purl.org/dc/dcmitype/StillImage"/>
    <dc:date>2024-06-17T00:57:16.579699</dc:date>
    <dc:format>image/svg+xml</dc:format>
    <dc:creator>
     <cc:Agent>
      <dc:title>Matplotlib v3.8.2, https://matplotlib.org/</dc:title>
     </cc:Agent>
    </dc:creator>
   </cc:Work>
  </rdf:RDF>
 </metadata>
 <defs>
  <style type="text/css">*{stroke-linejoin: round; stroke-linecap: butt}</style>
 </defs>
 <g id="figure_1">
  <g id="patch_1">
   <path d="M 0 520.07 
L 675.254688 520.07 
L 675.254688 0 
L 0 0 
z
" style="fill: #ffffff"/>
  </g>
  <g id="axes_1">
   <g id="patch_2">
    <path d="M 84.604688 458.318437 
L 642.604687 458.318437 
L 642.604687 14.798437 
L 84.604688 14.798437 
z
" style="fill: #ffffff"/>
   </g>
   <g id="matplotlib.axis_1">
    <g id="xtick_1">
     <g id="line2d_1">
      <path d="M 84.604688 458.318437 
L 84.604688 14.798437 
" clip-path="url(#p0fed06561c)" style="fill: none; stroke: #b0b0b0; stroke-width: 0.8; stroke-linecap: square"/>
     </g>
     <g id="line2d_2">
      <defs>
       <path id="md75abaf6cd" d="M 0 0 
L 0 3.5 
" style="stroke: #000000; stroke-width: 0.8"/>
      </defs>
      <g>
       <use xlink:href="#md75abaf6cd" x="84.604688" y="458.318437" style="stroke: #000000; stroke-width: 0.8"/>
      </g>
     </g>
     <g id="text_1">
      <!-- 0 -->
      <g transform="translate(78.242188 480.515312) scale(0.2 -0.2)">
       <defs>
        <path id="DejaVuSans-30" d="M 2034 4250 
Q 1547 4250 1301 3770 
Q 1056 3291 1056 2328 
Q 1056 1369 1301 889 
Q 1547 409 2034 409 
Q 2525 409 2770 889 
Q 3016 1369 3016 2328 
Q 3016 3291 2770 3770 
Q 2525 4250 2034 4250 
z
M 2034 4750 
Q 2819 4750 3233 4129 
Q 3647 3509 3647 2328 
Q 3647 1150 3233 529 
Q 2819 -91 2034 -91 
Q 1250 -91 836 529 
Q 422 1150 422 2328 
Q 422 3509 836 4129 
Q 1250 4750 2034 4750 
z
" transform="scale(0.015625)"/>
       </defs>
       <use xlink:href="#DejaVuSans-30"/>
      </g>
     </g>
    </g>
    <g id="xtick_2">
     <g id="line2d_3">
      <path d="M 177.604688 458.318437 
L 177.604688 14.798437 
" clip-path="url(#p0fed06561c)" style="fill: none; stroke: #b0b0b0; stroke-width: 0.8; stroke-linecap: square"/>
     </g>
     <g id="line2d_4">
      <g>
       <use xlink:href="#md75abaf6cd" x="177.604688" y="458.318437" style="stroke: #000000; stroke-width: 0.8"/>
      </g>
     </g>
     <g id="text_2">
      <!-- 200 -->
      <g transform="translate(158.517188 480.515312) scale(0.2 -0.2)">
       <defs>
        <path id="DejaVuSans-32" d="M 1228 531 
L 3431 531 
L 3431 0 
L 469 0 
L 469 531 
Q 828 903 1448 1529 
Q 2069 2156 2228 2338 
Q 2531 2678 2651 2914 
Q 2772 3150 2772 3378 
Q 2772 3750 2511 3984 
Q 2250 4219 1831 4219 
Q 1534 4219 1204 4116 
Q 875 4013 500 3803 
L 500 4441 
Q 881 4594 1212 4672 
Q 1544 4750 1819 4750 
Q 2544 4750 2975 4387 
Q 3406 4025 3406 3419 
Q 3406 3131 3298 2873 
Q 3191 2616 2906 2266 
Q 2828 2175 2409 1742 
Q 1991 1309 1228 531 
z
" transform="scale(0.015625)"/>
       </defs>
       <use xlink:href="#DejaVuSans-32"/>
       <use xlink:href="#DejaVuSans-30" x="63.623047"/>
       <use xlink:href="#DejaVuSans-30" x="127.246094"/>
      </g>
     </g>
    </g>
    <g id="xtick_3">
     <g id="line2d_5">
      <path d="M 270.604688 458.318437 
L 270.604688 14.798437 
" clip-path="url(#p0fed06561c)" style="fill: none; stroke: #b0b0b0; stroke-width: 0.8; stroke-linecap: square"/>
     </g>
     <g id="line2d_6">
      <g>
       <use xlink:href="#md75abaf6cd" x="270.604688" y="458.318437" style="stroke: #000000; stroke-width: 0.8"/>
      </g>
     </g>
     <g id="text_3">
      <!-- 400 -->
      <g transform="translate(251.517188 480.515312) scale(0.2 -0.2)">
       <defs>
        <path id="DejaVuSans-34" d="M 2419 4116 
L 825 1625 
L 2419 1625 
L 2419 4116 
z
M 2253 4666 
L 3047 4666 
L 3047 1625 
L 3713 1625 
L 3713 1100 
L 3047 1100 
L 3047 0 
L 2419 0 
L 2419 1100 
L 313 1100 
L 313 1709 
L 2253 4666 
z
" transform="scale(0.015625)"/>
       </defs>
       <use xlink:href="#DejaVuSans-34"/>
       <use xlink:href="#DejaVuSans-30" x="63.623047"/>
       <use xlink:href="#DejaVuSans-30" x="127.246094"/>
      </g>
     </g>
    </g>
    <g id="xtick_4">
     <g id="line2d_7">
      <path d="M 363.604688 458.318437 
L 363.604688 14.798437 
" clip-path="url(#p0fed06561c)" style="fill: none; stroke: #b0b0b0; stroke-width: 0.8; stroke-linecap: square"/>
     </g>
     <g id="line2d_8">
      <g>
       <use xlink:href="#md75abaf6cd" x="363.604688" y="458.318437" style="stroke: #000000; stroke-width: 0.8"/>
      </g>
     </g>
     <g id="text_4">
      <!-- 600 -->
      <g transform="translate(344.517188 480.515312) scale(0.2 -0.2)">
       <defs>
        <path id="DejaVuSans-36" d="M 2113 2584 
Q 1688 2584 1439 2293 
Q 1191 2003 1191 1497 
Q 1191 994 1439 701 
Q 1688 409 2113 409 
Q 2538 409 2786 701 
Q 3034 994 3034 1497 
Q 3034 2003 2786 2293 
Q 2538 2584 2113 2584 
z
M 3366 4563 
L 3366 3988 
Q 3128 4100 2886 4159 
Q 2644 4219 2406 4219 
Q 1781 4219 1451 3797 
Q 1122 3375 1075 2522 
Q 1259 2794 1537 2939 
Q 1816 3084 2150 3084 
Q 2853 3084 3261 2657 
Q 3669 2231 3669 1497 
Q 3669 778 3244 343 
Q 2819 -91 2113 -91 
Q 1303 -91 875 529 
Q 447 1150 447 2328 
Q 447 3434 972 4092 
Q 1497 4750 2381 4750 
Q 2619 4750 2861 4703 
Q 3103 4656 3366 4563 
z
" transform="scale(0.015625)"/>
       </defs>
       <use xlink:href="#DejaVuSans-36"/>
       <use xlink:href="#DejaVuSans-30" x="63.623047"/>
       <use xlink:href="#DejaVuSans-30" x="127.246094"/>
      </g>
     </g>
    </g>
    <g id="xtick_5">
     <g id="line2d_9">
      <path d="M 456.604688 458.318437 
L 456.604688 14.798437 
" clip-path="url(#p0fed06561c)" style="fill: none; stroke: #b0b0b0; stroke-width: 0.8; stroke-linecap: square"/>
     </g>
     <g id="line2d_10">
      <g>
       <use xlink:href="#md75abaf6cd" x="456.604688" y="458.318437" style="stroke: #000000; stroke-width: 0.8"/>
      </g>
     </g>
     <g id="text_5">
      <!-- 800 -->
      <g transform="translate(437.517188 480.515312) scale(0.2 -0.2)">
       <defs>
        <path id="DejaVuSans-38" d="M 2034 2216 
Q 1584 2216 1326 1975 
Q 1069 1734 1069 1313 
Q 1069 891 1326 650 
Q 1584 409 2034 409 
Q 2484 409 2743 651 
Q 3003 894 3003 1313 
Q 3003 1734 2745 1975 
Q 2488 2216 2034 2216 
z
M 1403 2484 
Q 997 2584 770 2862 
Q 544 3141 544 3541 
Q 544 4100 942 4425 
Q 1341 4750 2034 4750 
Q 2731 4750 3128 4425 
Q 3525 4100 3525 3541 
Q 3525 3141 3298 2862 
Q 3072 2584 2669 2484 
Q 3125 2378 3379 2068 
Q 3634 1759 3634 1313 
Q 3634 634 3220 271 
Q 2806 -91 2034 -91 
Q 1263 -91 848 271 
Q 434 634 434 1313 
Q 434 1759 690 2068 
Q 947 2378 1403 2484 
z
M 1172 3481 
Q 1172 3119 1398 2916 
Q 1625 2713 2034 2713 
Q 2441 2713 2670 2916 
Q 2900 3119 2900 3481 
Q 2900 3844 2670 4047 
Q 2441 4250 2034 4250 
Q 1625 4250 1398 4047 
Q 1172 3844 1172 3481 
z
" transform="scale(0.015625)"/>
       </defs>
       <use xlink:href="#DejaVuSans-38"/>
       <use xlink:href="#DejaVuSans-30" x="63.623047"/>
       <use xlink:href="#DejaVuSans-30" x="127.246094"/>
      </g>
     </g>
    </g>
    <g id="xtick_6">
     <g id="line2d_11">
      <path d="M 549.604687 458.318437 
L 549.604687 14.798437 
" clip-path="url(#p0fed06561c)" style="fill: none; stroke: #b0b0b0; stroke-width: 0.8; stroke-linecap: square"/>
     </g>
     <g id="line2d_12">
      <g>
       <use xlink:href="#md75abaf6cd" x="549.604687" y="458.318437" style="stroke: #000000; stroke-width: 0.8"/>
      </g>
     </g>
     <g id="text_6">
      <!-- 1000 -->
      <g transform="translate(524.154687 480.515312) scale(0.2 -0.2)">
       <defs>
        <path id="DejaVuSans-31" d="M 794 531 
L 1825 531 
L 1825 4091 
L 703 3866 
L 703 4441 
L 1819 4666 
L 2450 4666 
L 2450 531 
L 3481 531 
L 3481 0 
L 794 0 
L 794 531 
z
" transform="scale(0.015625)"/>
       </defs>
       <use xlink:href="#DejaVuSans-31"/>
       <use xlink:href="#DejaVuSans-30" x="63.623047"/>
       <use xlink:href="#DejaVuSans-30" x="127.246094"/>
       <use xlink:href="#DejaVuSans-30" x="190.869141"/>
      </g>
     </g>
    </g>
    <g id="xtick_7">
     <g id="line2d_13">
      <path d="M 642.604687 458.318437 
L 642.604687 14.798437 
" clip-path="url(#p0fed06561c)" style="fill: none; stroke: #b0b0b0; stroke-width: 0.8; stroke-linecap: square"/>
     </g>
     <g id="line2d_14">
      <g>
       <use xlink:href="#md75abaf6cd" x="642.604687" y="458.318437" style="stroke: #000000; stroke-width: 0.8"/>
      </g>
     </g>
     <g id="text_7">
      <!-- 1200 -->
      <g transform="translate(617.154687 480.515312) scale(0.2 -0.2)">
       <use xlink:href="#DejaVuSans-31"/>
       <use xlink:href="#DejaVuSans-32" x="63.623047"/>
       <use xlink:href="#DejaVuSans-30" x="127.246094"/>
       <use xlink:href="#DejaVuSans-30" x="190.869141"/>
      </g>
     </g>
    </g>
    <g id="text_8">
     <!-- Slant depth [m w.e.] -->
     <g transform="translate(236.762891 507.670781) scale(0.25 -0.25)">
      <defs>
       <path id="DejaVuSans-53" d="M 3425 4513 
L 3425 3897 
Q 3066 4069 2747 4153 
Q 2428 4238 2131 4238 
Q 1616 4238 1336 4038 
Q 1056 3838 1056 3469 
Q 1056 3159 1242 3001 
Q 1428 2844 1947 2747 
L 2328 2669 
Q 3034 2534 3370 2195 
Q 3706 1856 3706 1288 
Q 3706 609 3251 259 
Q 2797 -91 1919 -91 
Q 1588 -91 1214 -16 
Q 841 59 441 206 
L 441 856 
Q 825 641 1194 531 
Q 1563 422 1919 422 
Q 2459 422 2753 634 
Q 3047 847 3047 1241 
Q 3047 1584 2836 1778 
Q 2625 1972 2144 2069 
L 1759 2144 
Q 1053 2284 737 2584 
Q 422 2884 422 3419 
Q 422 4038 858 4394 
Q 1294 4750 2059 4750 
Q 2388 4750 2728 4690 
Q 3069 4631 3425 4513 
z
" transform="scale(0.015625)"/>
       <path id="DejaVuSans-6c" d="M 603 4863 
L 1178 4863 
L 1178 0 
L 603 0 
L 603 4863 
z
" transform="scale(0.015625)"/>
       <path id="DejaVuSans-61" d="M 2194 1759 
Q 1497 1759 1228 1600 
Q 959 1441 959 1056 
Q 959 750 1161 570 
Q 1363 391 1709 391 
Q 2188 391 2477 730 
Q 2766 1069 2766 1631 
L 2766 1759 
L 2194 1759 
z
M 3341 1997 
L 3341 0 
L 2766 0 
L 2766 531 
Q 2569 213 2275 61 
Q 1981 -91 1556 -91 
Q 1019 -91 701 211 
Q 384 513 384 1019 
Q 384 1609 779 1909 
Q 1175 2209 1959 2209 
L 2766 2209 
L 2766 2266 
Q 2766 2663 2505 2880 
Q 2244 3097 1772 3097 
Q 1472 3097 1187 3025 
Q 903 2953 641 2809 
L 641 3341 
Q 956 3463 1253 3523 
Q 1550 3584 1831 3584 
Q 2591 3584 2966 3190 
Q 3341 2797 3341 1997 
z
" transform="scale(0.015625)"/>
       <path id="DejaVuSans-6e" d="M 3513 2113 
L 3513 0 
L 2938 0 
L 2938 2094 
Q 2938 2591 2744 2837 
Q 2550 3084 2163 3084 
Q 1697 3084 1428 2787 
Q 1159 2491 1159 1978 
L 1159 0 
L 581 0 
L 581 3500 
L 1159 3500 
L 1159 2956 
Q 1366 3272 1645 3428 
Q 1925 3584 2291 3584 
Q 2894 3584 3203 3211 
Q 3513 2838 3513 2113 
z
" transform="scale(0.015625)"/>
       <path id="DejaVuSans-74" d="M 1172 4494 
L 1172 3500 
L 2356 3500 
L 2356 3053 
L 1172 3053 
L 1172 1153 
Q 1172 725 1289 603 
Q 1406 481 1766 481 
L 2356 481 
L 2356 0 
L 1766 0 
Q 1100 0 847 248 
Q 594 497 594 1153 
L 594 3053 
L 172 3053 
L 172 3500 
L 594 3500 
L 594 4494 
L 1172 4494 
z
" transform="scale(0.015625)"/>
       <path id="DejaVuSans-20" transform="scale(0.015625)"/>
       <path id="DejaVuSans-64" d="M 2906 2969 
L 2906 4863 
L 3481 4863 
L 3481 0 
L 2906 0 
L 2906 525 
Q 2725 213 2448 61 
Q 2172 -91 1784 -91 
Q 1150 -91 751 415 
Q 353 922 353 1747 
Q 353 2572 751 3078 
Q 1150 3584 1784 3584 
Q 2172 3584 2448 3432 
Q 2725 3281 2906 2969 
z
M 947 1747 
Q 947 1113 1208 752 
Q 1469 391 1925 391 
Q 2381 391 2643 752 
Q 2906 1113 2906 1747 
Q 2906 2381 2643 2742 
Q 2381 3103 1925 3103 
Q 1469 3103 1208 2742 
Q 947 2381 947 1747 
z
" transform="scale(0.015625)"/>
       <path id="DejaVuSans-65" d="M 3597 1894 
L 3597 1613 
L 953 1613 
Q 991 1019 1311 708 
Q 1631 397 2203 397 
Q 2534 397 2845 478 
Q 3156 559 3463 722 
L 3463 178 
Q 3153 47 2828 -22 
Q 2503 -91 2169 -91 
Q 1331 -91 842 396 
Q 353 884 353 1716 
Q 353 2575 817 3079 
Q 1281 3584 2069 3584 
Q 2775 3584 3186 3129 
Q 3597 2675 3597 1894 
z
M 3022 2063 
Q 3016 2534 2758 2815 
Q 2500 3097 2075 3097 
Q 1594 3097 1305 2825 
Q 1016 2553 972 2059 
L 3022 2063 
z
" transform="scale(0.015625)"/>
       <path id="DejaVuSans-70" d="M 1159 525 
L 1159 -1331 
L 581 -1331 
L 581 3500 
L 1159 3500 
L 1159 2969 
Q 1341 3281 1617 3432 
Q 1894 3584 2278 3584 
Q 2916 3584 3314 3078 
Q 3713 2572 3713 1747 
Q 3713 922 3314 415 
Q 2916 -91 2278 -91 
Q 1894 -91 1617 61 
Q 1341 213 1159 525 
z
M 3116 1747 
Q 3116 2381 2855 2742 
Q 2594 3103 2138 3103 
Q 1681 3103 1420 2742 
Q 1159 2381 1159 1747 
Q 1159 1113 1420 752 
Q 1681 391 2138 391 
Q 2594 391 2855 752 
Q 3116 1113 3116 1747 
z
" transform="scale(0.015625)"/>
       <path id="DejaVuSans-68" d="M 3513 2113 
L 3513 0 
L 2938 0 
L 2938 2094 
Q 2938 2591 2744 2837 
Q 2550 3084 2163 3084 
Q 1697 3084 1428 2787 
Q 1159 2491 1159 1978 
L 1159 0 
L 581 0 
L 581 4863 
L 1159 4863 
L 1159 2956 
Q 1366 3272 1645 3428 
Q 1925 3584 2291 3584 
Q 2894 3584 3203 3211 
Q 3513 2838 3513 2113 
z
" transform="scale(0.015625)"/>
       <path id="DejaVuSans-5b" d="M 550 4863 
L 1875 4863 
L 1875 4416 
L 1125 4416 
L 1125 -397 
L 1875 -397 
L 1875 -844 
L 550 -844 
L 550 4863 
z
" transform="scale(0.015625)"/>
       <path id="DejaVuSans-6d" d="M 3328 2828 
Q 3544 3216 3844 3400 
Q 4144 3584 4550 3584 
Q 5097 3584 5394 3201 
Q 5691 2819 5691 2113 
L 5691 0 
L 5113 0 
L 5113 2094 
Q 5113 2597 4934 2840 
Q 4756 3084 4391 3084 
Q 3944 3084 3684 2787 
Q 3425 2491 3425 1978 
L 3425 0 
L 2847 0 
L 2847 2094 
Q 2847 2600 2669 2842 
Q 2491 3084 2119 3084 
Q 1678 3084 1418 2786 
Q 1159 2488 1159 1978 
L 1159 0 
L 581 0 
L 581 3500 
L 1159 3500 
L 1159 2956 
Q 1356 3278 1631 3431 
Q 1906 3584 2284 3584 
Q 2666 3584 2933 3390 
Q 3200 3197 3328 2828 
z
" transform="scale(0.015625)"/>
       <path id="DejaVuSans-77" d="M 269 3500 
L 844 3500 
L 1563 769 
L 2278 3500 
L 2956 3500 
L 3675 769 
L 4391 3500 
L 4966 3500 
L 4050 0 
L 3372 0 
L 2619 2869 
L 1863 0 
L 1184 0 
L 269 3500 
z
" transform="scale(0.015625)"/>
       <path id="DejaVuSans-2e" d="M 684 794 
L 1344 794 
L 1344 0 
L 684 0 
L 684 794 
z
" transform="scale(0.015625)"/>
       <path id="DejaVuSans-5d" d="M 1947 4863 
L 1947 -844 
L 622 -844 
L 622 -397 
L 1369 -397 
L 1369 4416 
L 622 4416 
L 622 4863 
L 1947 4863 
z
" transform="scale(0.015625)"/>
      </defs>
      <use xlink:href="#DejaVuSans-53"/>
      <use xlink:href="#DejaVuSans-6c" x="63.476562"/>
      <use xlink:href="#DejaVuSans-61" x="91.259766"/>
      <use xlink:href="#DejaVuSans-6e" x="152.539062"/>
      <use xlink:href="#DejaVuSans-74" x="215.917969"/>
      <use xlink:href="#DejaVuSans-20" x="255.126953"/>
      <use xlink:href="#DejaVuSans-64" x="286.914062"/>
      <use xlink:href="#DejaVuSans-65" x="350.390625"/>
      <use xlink:href="#DejaVuSans-70" x="411.914062"/>
      <use xlink:href="#DejaVuSans-74" x="475.390625"/>
      <use xlink:href="#DejaVuSans-68" x="514.599609"/>
      <use xlink:href="#DejaVuSans-20" x="577.978516"/>
      <use xlink:href="#DejaVuSans-5b" x="609.765625"/>
      <use xlink:href="#DejaVuSans-6d" x="648.779297"/>
      <use xlink:href="#DejaVuSans-20" x="746.191406"/>
      <use xlink:href="#DejaVuSans-77" x="777.978516"/>
      <use xlink:href="#DejaVuSans-2e" x="850.640625"/>
      <use xlink:href="#DejaVuSans-65" x="882.427734"/>
      <use xlink:href="#DejaVuSans-2e" x="943.951172"/>
      <use xlink:href="#DejaVuSans-5d" x="975.738281"/>
     </g>
    </g>
   </g>
   <g id="matplotlib.axis_2">
    <g id="ytick_1">
     <g id="line2d_15">
      <path d="M 84.604688 458.318437 
L 642.604687 458.318437 
" clip-path="url(#p0fed06561c)" style="fill: none; stroke: #b0b0b0; stroke-width: 0.8; stroke-linecap: square"/>
     </g>
     <g id="line2d_16">
      <defs>
       <path id="m869ef5be77" d="M 0 0 
L -3.5 0 
" style="stroke: #000000; stroke-width: 0.8"/>
      </defs>
      <g>
       <use xlink:href="#m869ef5be77" x="84.604688" y="458.318437" style="stroke: #000000; stroke-width: 0.8"/>
      </g>
     </g>
     <g id="text_9">
      <!-- −20 -->
      <g transform="translate(35.395313 465.916875) scale(0.2 -0.2)">
       <defs>
        <path id="DejaVuSans-2212" d="M 678 2272 
L 4684 2272 
L 4684 1741 
L 678 1741 
L 678 2272 
z
" transform="scale(0.015625)"/>
       </defs>
       <use xlink:href="#DejaVuSans-2212"/>
       <use xlink:href="#DejaVuSans-32" x="83.789062"/>
       <use xlink:href="#DejaVuSans-30" x="147.412109"/>
      </g>
     </g>
    </g>
    <g id="ytick_2">
     <g id="line2d_17">
      <path d="M 84.604688 402.878438 
L 642.604687 402.878438 
" clip-path="url(#p0fed06561c)" style="fill: none; stroke: #b0b0b0; stroke-width: 0.8; stroke-linecap: square"/>
     </g>
     <g id="line2d_18">
      <g>
       <use xlink:href="#m869ef5be77" x="84.604688" y="402.878438" style="stroke: #000000; stroke-width: 0.8"/>
      </g>
     </g>
     <g id="text_10">
      <!-- −15 -->
      <g transform="translate(35.395313 410.476875) scale(0.2 -0.2)">
       <defs>
        <path id="DejaVuSans-35" d="M 691 4666 
L 3169 4666 
L 3169 4134 
L 1269 4134 
L 1269 2991 
Q 1406 3038 1543 3061 
Q 1681 3084 1819 3084 
Q 2600 3084 3056 2656 
Q 3513 2228 3513 1497 
Q 3513 744 3044 326 
Q 2575 -91 1722 -91 
Q 1428 -91 1123 -41 
Q 819 9 494 109 
L 494 744 
Q 775 591 1075 516 
Q 1375 441 1709 441 
Q 2250 441 2565 725 
Q 2881 1009 2881 1497 
Q 2881 1984 2565 2268 
Q 2250 2553 1709 2553 
Q 1456 2553 1204 2497 
Q 953 2441 691 2322 
L 691 4666 
z
" transform="scale(0.015625)"/>
       </defs>
       <use xlink:href="#DejaVuSans-2212"/>
       <use xlink:href="#DejaVuSans-31" x="83.789062"/>
       <use xlink:href="#DejaVuSans-35" x="147.412109"/>
      </g>
     </g>
    </g>
    <g id="ytick_3">
     <g id="line2d_19">
      <path d="M 84.604688 347.438437 
L 642.604687 347.438437 
" clip-path="url(#p0fed06561c)" style="fill: none; stroke: #b0b0b0; stroke-width: 0.8; stroke-linecap: square"/>
     </g>
     <g id="line2d_20">
      <g>
       <use xlink:href="#m869ef5be77" x="84.604688" y="347.438437" style="stroke: #000000; stroke-width: 0.8"/>
      </g>
     </g>
     <g id="text_11">
      <!-- −10 -->
      <g transform="translate(35.395313 355.036875) scale(0.2 -0.2)">
       <use xlink:href="#DejaVuSans-2212"/>
       <use xlink:href="#DejaVuSans-31" x="83.789062"/>
       <use xlink:href="#DejaVuSans-30" x="147.412109"/>
      </g>
     </g>
    </g>
    <g id="ytick_4">
     <g id="line2d_21">
      <path d="M 84.604688 291.998437 
L 642.604687 291.998437 
" clip-path="url(#p0fed06561c)" style="fill: none; stroke: #b0b0b0; stroke-width: 0.8; stroke-linecap: square"/>
     </g>
     <g id="line2d_22">
      <g>
       <use xlink:href="#m869ef5be77" x="84.604688" y="291.998437" style="stroke: #000000; stroke-width: 0.8"/>
      </g>
     </g>
     <g id="text_12">
      <!-- −5 -->
      <g transform="translate(48.120313 299.596875) scale(0.2 -0.2)">
       <use xlink:href="#DejaVuSans-2212"/>
       <use xlink:href="#DejaVuSans-35" x="83.789062"/>
      </g>
     </g>
    </g>
    <g id="ytick_5">
     <g id="line2d_23">
      <path d="M 84.604688 236.558437 
L 642.604687 236.558437 
" clip-path="url(#p0fed06561c)" style="fill: none; stroke: #b0b0b0; stroke-width: 0.8; stroke-linecap: square"/>
     </g>
     <g id="line2d_24">
      <g>
       <use xlink:href="#m869ef5be77" x="84.604688" y="236.558437" style="stroke: #000000; stroke-width: 0.8"/>
      </g>
     </g>
     <g id="text_13">
      <!-- 0 -->
      <g transform="translate(64.879688 244.156875) scale(0.2 -0.2)">
       <use xlink:href="#DejaVuSans-30"/>
      </g>
     </g>
    </g>
    <g id="ytick_6">
     <g id="line2d_25">
      <path d="M 84.604688 181.118437 
L 642.604687 181.118437 
" clip-path="url(#p0fed06561c)" style="fill: none; stroke: #b0b0b0; stroke-width: 0.8; stroke-linecap: square"/>
     </g>
     <g id="line2d_26">
      <g>
       <use xlink:href="#m869ef5be77" x="84.604688" y="181.118437" style="stroke: #000000; stroke-width: 0.8"/>
      </g>
     </g>
     <g id="text_14">
      <!-- 5 -->
      <g transform="translate(64.879688 188.716875) scale(0.2 -0.2)">
       <use xlink:href="#DejaVuSans-35"/>
      </g>
     </g>
    </g>
    <g id="ytick_7">
     <g id="line2d_27">
      <path d="M 84.604688 125.678437 
L 642.604687 125.678437 
" clip-path="url(#p0fed06561c)" style="fill: none; stroke: #b0b0b0; stroke-width: 0.8; stroke-linecap: square"/>
     </g>
     <g id="line2d_28">
      <g>
       <use xlink:href="#m869ef5be77" x="84.604688" y="125.678437" style="stroke: #000000; stroke-width: 0.8"/>
      </g>
     </g>
     <g id="text_15">
      <!-- 10 -->
      <g transform="translate(52.154688 133.276875) scale(0.2 -0.2)">
       <use xlink:href="#DejaVuSans-31"/>
       <use xlink:href="#DejaVuSans-30" x="63.623047"/>
      </g>
     </g>
    </g>
    <g id="ytick_8">
     <g id="line2d_29">
      <path d="M 84.604688 70.238437 
L 642.604687 70.238437 
" clip-path="url(#p0fed06561c)" style="fill: none; stroke: #b0b0b0; stroke-width: 0.8; stroke-linecap: square"/>
     </g>
     <g id="line2d_30">
      <g>
       <use xlink:href="#m869ef5be77" x="84.604688" y="70.238437" style="stroke: #000000; stroke-width: 0.8"/>
      </g>
     </g>
     <g id="text_16">
      <!-- 15 -->
      <g transform="translate(52.154688 77.836875) scale(0.2 -0.2)">
       <use xlink:href="#DejaVuSans-31"/>
       <use xlink:href="#DejaVuSans-35" x="63.623047"/>
      </g>
     </g>
    </g>
    <g id="ytick_9">
     <g id="line2d_31">
      <path d="M 84.604688 14.798437 
L 642.604687 14.798437 
" clip-path="url(#p0fed06561c)" style="fill: none; stroke: #b0b0b0; stroke-width: 0.8; stroke-linecap: square"/>
     </g>
     <g id="line2d_32">
      <g>
       <use xlink:href="#m869ef5be77" x="84.604688" y="14.798437" style="stroke: #000000; stroke-width: 0.8"/>
      </g>
     </g>
     <g id="text_17">
      <!-- 20 -->
      <g transform="translate(52.154688 22.396875) scale(0.2 -0.2)">
       <use xlink:href="#DejaVuSans-32"/>
       <use xlink:href="#DejaVuSans-30" x="63.623047"/>
      </g>
     </g>
    </g>
    <g id="text_18">
     <!-- Systematic uncertainty [%] -->
     <g transform="translate(26.196094 407.454922) rotate(-90) scale(0.25 -0.25)">
      <defs>
       <path id="DejaVuSans-79" d="M 2059 -325 
Q 1816 -950 1584 -1140 
Q 1353 -1331 966 -1331 
L 506 -1331 
L 506 -850 
L 844 -850 
Q 1081 -850 1212 -737 
Q 1344 -625 1503 -206 
L 1606 56 
L 191 3500 
L 800 3500 
L 1894 763 
L 2988 3500 
L 3597 3500 
L 2059 -325 
z
" transform="scale(0.015625)"/>
       <path id="DejaVuSans-73" d="M 2834 3397 
L 2834 2853 
Q 2591 2978 2328 3040 
Q 2066 3103 1784 3103 
Q 1356 3103 1142 2972 
Q 928 2841 928 2578 
Q 928 2378 1081 2264 
Q 1234 2150 1697 2047 
L 1894 2003 
Q 2506 1872 2764 1633 
Q 3022 1394 3022 966 
Q 3022 478 2636 193 
Q 2250 -91 1575 -91 
Q 1294 -91 989 -36 
Q 684 19 347 128 
L 347 722 
Q 666 556 975 473 
Q 1284 391 1588 391 
Q 1994 391 2212 530 
Q 2431 669 2431 922 
Q 2431 1156 2273 1281 
Q 2116 1406 1581 1522 
L 1381 1569 
Q 847 1681 609 1914 
Q 372 2147 372 2553 
Q 372 3047 722 3315 
Q 1072 3584 1716 3584 
Q 2034 3584 2315 3537 
Q 2597 3491 2834 3397 
z
" transform="scale(0.015625)"/>
       <path id="DejaVuSans-69" d="M 603 3500 
L 1178 3500 
L 1178 0 
L 603 0 
L 603 3500 
z
M 603 4863 
L 1178 4863 
L 1178 4134 
L 603 4134 
L 603 4863 
z
" transform="scale(0.015625)"/>
       <path id="DejaVuSans-63" d="M 3122 3366 
L 3122 2828 
Q 2878 2963 2633 3030 
Q 2388 3097 2138 3097 
Q 1578 3097 1268 2742 
Q 959 2388 959 1747 
Q 959 1106 1268 751 
Q 1578 397 2138 397 
Q 2388 397 2633 464 
Q 2878 531 3122 666 
L 3122 134 
Q 2881 22 2623 -34 
Q 2366 -91 2075 -91 
Q 1284 -91 818 406 
Q 353 903 353 1747 
Q 353 2603 823 3093 
Q 1294 3584 2113 3584 
Q 2378 3584 2631 3529 
Q 2884 3475 3122 3366 
z
" transform="scale(0.015625)"/>
       <path id="DejaVuSans-75" d="M 544 1381 
L 544 3500 
L 1119 3500 
L 1119 1403 
Q 1119 906 1312 657 
Q 1506 409 1894 409 
Q 2359 409 2629 706 
Q 2900 1003 2900 1516 
L 2900 3500 
L 3475 3500 
L 3475 0 
L 2900 0 
L 2900 538 
Q 2691 219 2414 64 
Q 2138 -91 1772 -91 
Q 1169 -91 856 284 
Q 544 659 544 1381 
z
M 1991 3584 
L 1991 3584 
z
" transform="scale(0.015625)"/>
       <path id="DejaVuSans-72" d="M 2631 2963 
Q 2534 3019 2420 3045 
Q 2306 3072 2169 3072 
Q 1681 3072 1420 2755 
Q 1159 2438 1159 1844 
L 1159 0 
L 581 0 
L 581 3500 
L 1159 3500 
L 1159 2956 
Q 1341 3275 1631 3429 
Q 1922 3584 2338 3584 
Q 2397 3584 2469 3576 
Q 2541 3569 2628 3553 
L 2631 2963 
z
" transform="scale(0.015625)"/>
       <path id="DejaVuSans-25" d="M 4653 2053 
Q 4381 2053 4226 1822 
Q 4072 1591 4072 1178 
Q 4072 772 4226 539 
Q 4381 306 4653 306 
Q 4919 306 5073 539 
Q 5228 772 5228 1178 
Q 5228 1588 5073 1820 
Q 4919 2053 4653 2053 
z
M 4653 2450 
Q 5147 2450 5437 2106 
Q 5728 1763 5728 1178 
Q 5728 594 5436 251 
Q 5144 -91 4653 -91 
Q 4153 -91 3862 251 
Q 3572 594 3572 1178 
Q 3572 1766 3864 2108 
Q 4156 2450 4653 2450 
z
M 1428 4353 
Q 1159 4353 1004 4120 
Q 850 3888 850 3481 
Q 850 3069 1003 2837 
Q 1156 2606 1428 2606 
Q 1700 2606 1854 2837 
Q 2009 3069 2009 3481 
Q 2009 3884 1853 4118 
Q 1697 4353 1428 4353 
z
M 4250 4750 
L 4750 4750 
L 1831 -91 
L 1331 -91 
L 4250 4750 
z
M 1428 4750 
Q 1922 4750 2215 4408 
Q 2509 4066 2509 3481 
Q 2509 2891 2217 2550 
Q 1925 2209 1428 2209 
Q 931 2209 642 2551 
Q 353 2894 353 3481 
Q 353 4063 643 4406 
Q 934 4750 1428 4750 
z
" transform="scale(0.015625)"/>
      </defs>
      <use xlink:href="#DejaVuSans-53"/>
      <use xlink:href="#DejaVuSans-79" x="63.476562"/>
      <use xlink:href="#DejaVuSans-73" x="122.65625"/>
      <use xlink:href="#DejaVuSans-74" x="174.755859"/>
      <use xlink:href="#DejaVuSans-65" x="213.964844"/>
      <use xlink:href="#DejaVuSans-6d" x="275.488281"/>
      <use xlink:href="#DejaVuSans-61" x="372.900391"/>
      <use xlink:href="#DejaVuSans-74" x="434.179688"/>
      <use xlink:href="#DejaVuSans-69" x="473.388672"/>
      <use xlink:href="#DejaVuSans-63" x="501.171875"/>
      <use xlink:href="#DejaVuSans-20" x="556.152344"/>
      <use xlink:href="#DejaVuSans-75" x="587.939453"/>
      <use xlink:href="#DejaVuSans-6e" x="651.318359"/>
      <use xlink:href="#DejaVuSans-63" x="714.697266"/>
      <use xlink:href="#DejaVuSans-65" x="769.677734"/>
      <use xlink:href="#DejaVuSans-72" x="831.201172"/>
      <use xlink:href="#DejaVuSans-74" x="872.314453"/>
      <use xlink:href="#DejaVuSans-61" x="911.523438"/>
      <use xlink:href="#DejaVuSans-69" x="972.802734"/>
      <use xlink:href="#DejaVuSans-6e" x="1000.585938"/>
      <use xlink:href="#DejaVuSans-74" x="1063.964844"/>
      <use xlink:href="#DejaVuSans-79" x="1103.173828"/>
      <use xlink:href="#DejaVuSans-20" x="1162.353516"/>
      <use xlink:href="#DejaVuSans-5b" x="1194.140625"/>
      <use xlink:href="#DejaVuSans-25" x="1233.154297"/>
      <use xlink:href="#DejaVuSans-5d" x="1328.173828"/>
     </g>
    </g>
   </g>
   <g id="line2d_33">
    <path d="M 84.604688 174.639732 
L 89.254688 64.381688 
L 135.754688 52.899526 
L 182.254688 47.030819 
L 228.754688 45.737493 
L 275.254688 44.746193 
L 321.754688 53.276531 
L 368.254688 59.727109 
L 414.754688 66.347911 
L 461.254688 72.023372 
L 507.754688 70.281351 
L 554.254688 69.107719 
L 600.754688 68.086303 
L 647.254688 66.946104 
L 676.254688 66.156012 
" clip-path="url(#p0fed06561c)" style="fill: none; stroke: #000000; stroke-width: 4; stroke-linecap: square"/>
    <defs>
     <path id="mc41ad6e6f4" d="M -0.49999 0.49999 
L 0.50001 0.49999 
L 0.50001 -0.50001 
L -0.49999 -0.50001 
z
"/>
    </defs>
    <g clip-path="url(#p0fed06561c)">
     <use xlink:href="#mc41ad6e6f4" x="84.604688" y="174.639732"/>
     <use xlink:href="#mc41ad6e6f4" x="89.254688" y="64.381688"/>
     <use xlink:href="#mc41ad6e6f4" x="135.754688" y="52.899526"/>
     <use xlink:href="#mc41ad6e6f4" x="182.254688" y="47.030819"/>
     <use xlink:href="#mc41ad6e6f4" x="228.754688" y="45.737493"/>
     <use xlink:href="#mc41ad6e6f4" x="275.254688" y="44.746193"/>
     <use xlink:href="#mc41ad6e6f4" x="321.754688" y="53.276531"/>
     <use xlink:href="#mc41ad6e6f4" x="368.254688" y="59.727109"/>
     <use xlink:href="#mc41ad6e6f4" x="414.754688" y="66.347911"/>
     <use xlink:href="#mc41ad6e6f4" x="461.254688" y="72.023372"/>
     <use xlink:href="#mc41ad6e6f4" x="507.754688" y="70.281351"/>
     <use xlink:href="#mc41ad6e6f4" x="554.254688" y="69.107719"/>
     <use xlink:href="#mc41ad6e6f4" x="600.754688" y="68.086303"/>
     <use xlink:href="#mc41ad6e6f4" x="647.254688" y="66.946104"/>
     <use xlink:href="#mc41ad6e6f4" x="693.754688" y="65.679232"/>
     <use xlink:href="#mc41ad6e6f4" x="740.254688" y="64.522051"/>
    </g>
   </g>
   <g id="line2d_34">
    <path d="M 85.068232 521.07 
L 89.254688 241.331723 
L 135.754688 246.251988 
L 182.254688 250.926292 
L 228.754688 255.442915 
L 275.254688 259.247446 
L 321.754688 261.091141 
L 368.254688 263.472906 
L 414.754688 265.861605 
L 461.254688 268.320868 
L 507.754688 271.032198 
L 554.254688 273.833815 
L 600.754688 276.613185 
L 647.254688 279.418133 
L 676.254688 281.16481 
" clip-path="url(#p0fed06561c)" style="fill: none; stroke-dasharray: 14.8,6.4; stroke-dashoffset: 0; stroke: #000000; stroke-width: 4"/>
    <g clip-path="url(#p0fed06561c)">
     <use xlink:href="#mc41ad6e6f4" x="84.604688" y="552.043932"/>
     <use xlink:href="#mc41ad6e6f4" x="89.254688" y="241.331723"/>
     <use xlink:href="#mc41ad6e6f4" x="135.754688" y="246.251988"/>
     <use xlink:href="#mc41ad6e6f4" x="182.254688" y="250.926292"/>
     <use xlink:href="#mc41ad6e6f4" x="228.754688" y="255.442915"/>
     <use xlink:href="#mc41ad6e6f4" x="275.254688" y="259.247446"/>
     <use xlink:href="#mc41ad6e6f4" x="321.754688" y="261.091141"/>
     <use xlink:href="#mc41ad6e6f4" x="368.254688" y="263.472906"/>
     <use xlink:href="#mc41ad6e6f4" x="414.754688" y="265.861605"/>
     <use xlink:href="#mc41ad6e6f4" x="461.254688" y="268.320868"/>
     <use xlink:href="#mc41ad6e6f4" x="507.754688" y="271.032198"/>
     <use xlink:href="#mc41ad6e6f4" x="554.254688" y="273.833815"/>
     <use xlink:href="#mc41ad6e6f4" x="600.754688" y="276.613185"/>
     <use xlink:href="#mc41ad6e6f4" x="647.254688" y="279.418133"/>
     <use xlink:href="#mc41ad6e6f4" x="693.754688" y="282.218838"/>
     <use xlink:href="#mc41ad6e6f4" x="740.254688" y="285.0001"/>
    </g>
   </g>
   <g id="line2d_35">
    <path d="M 84.604688 231.252611 
L 89.254688 123.556179 
L 135.754688 111.85827 
L 182.254688 111.783031 
L 228.754688 112.828257 
L 275.254688 113.07094 
L 321.754688 119.288571 
L 368.254688 123.194858 
L 414.754688 127.039623 
L 461.254688 130.586507 
L 507.754688 133.584449 
L 554.254688 135.740892 
L 600.754688 137.179706 
L 647.254688 138.493806 
L 676.254688 139.203761 
" clip-path="url(#p0fed06561c)" style="fill: none; stroke: #d62728; stroke-width: 4; stroke-linecap: square"/>
    <defs>
     <path id="m2e81df4c86" d="M -0.49999 0.49999 
L 0.50001 0.49999 
L 0.50001 -0.50001 
L -0.49999 -0.50001 
z
"/>
    </defs>
    <g clip-path="url(#p0fed06561c)">
     <use xlink:href="#m2e81df4c86" x="84.604688" y="231.252611" style="fill: #d62728"/>
     <use xlink:href="#m2e81df4c86" x="89.254688" y="123.556179" style="fill: #d62728"/>
     <use xlink:href="#m2e81df4c86" x="135.754688" y="111.85827" style="fill: #d62728"/>
     <use xlink:href="#m2e81df4c86" x="182.254688" y="111.783031" style="fill: #d62728"/>
     <use xlink:href="#m2e81df4c86" x="228.754688" y="112.828257" style="fill: #d62728"/>
     <use xlink:href="#m2e81df4c86" x="275.254688" y="113.07094" style="fill: #d62728"/>
     <use xlink:href="#m2e81df4c86" x="321.754688" y="119.288571" style="fill: #d62728"/>
     <use xlink:href="#m2e81df4c86" x="368.254688" y="123.194858" style="fill: #d62728"/>
     <use xlink:href="#m2e81df4c86" x="414.754688" y="127.039623" style="fill: #d62728"/>
     <use xlink:href="#m2e81df4c86" x="461.254688" y="130.586507" style="fill: #d62728"/>
     <use xlink:href="#m2e81df4c86" x="507.754688" y="133.584449" style="fill: #d62728"/>
     <use xlink:href="#m2e81df4c86" x="554.254688" y="135.740892" style="fill: #d62728"/>
     <use xlink:href="#m2e81df4c86" x="600.754688" y="137.179706" style="fill: #d62728"/>
     <use xlink:href="#m2e81df4c86" x="647.254688" y="138.493806" style="fill: #d62728"/>
     <use xlink:href="#m2e81df4c86" x="693.754688" y="139.632182" style="fill: #d62728"/>
     <use xlink:href="#m2e81df4c86" x="740.254688" y="140.546733" style="fill: #d62728"/>
    </g>
   </g>
   <g id="line2d_36">
    <path d="M 84.604688 497.59561 
L 89.254688 236.558437 
L 135.754688 236.558437 
L 182.254688 236.558437 
L 228.754688 236.558437 
L 275.254688 236.558437 
L 321.754688 236.558437 
L 368.254688 236.558437 
L 414.754688 236.558437 
L 461.254688 236.558437 
L 507.754688 236.558437 
L 554.254688 236.558437 
L 600.754688 236.558437 
L 647.254688 236.558437 
L 676.254688 236.558437 
" clip-path="url(#p0fed06561c)" style="fill: none; stroke-dasharray: 14.8,6.4; stroke-dashoffset: 0; stroke: #d62728; stroke-width: 4"/>
    <g clip-path="url(#p0fed06561c)">
     <use xlink:href="#m2e81df4c86" x="84.604688" y="497.59561" style="fill: #d62728"/>
     <use xlink:href="#m2e81df4c86" x="89.254688" y="236.558437" style="fill: #d62728"/>
     <use xlink:href="#m2e81df4c86" x="135.754688" y="236.558437" style="fill: #d62728"/>
     <use xlink:href="#m2e81df4c86" x="182.254688" y="236.558437" style="fill: #d62728"/>
     <use xlink:href="#m2e81df4c86" x="228.754688" y="236.558437" style="fill: #d62728"/>
     <use xlink:href="#m2e81df4c86" x="275.254688" y="236.558437" style="fill: #d62728"/>
     <use xlink:href="#m2e81df4c86" x="321.754688" y="236.558437" style="fill: #d62728"/>
     <use xlink:href="#m2e81df4c86" x="368.254688" y="236.558437" style="fill: #d62728"/>
     <use xlink:href="#m2e81df4c86" x="414.754688" y="236.558437" style="fill: #d62728"/>
     <use xlink:href="#m2e81df4c86" x="461.254688" y="236.558437" style="fill: #d62728"/>
     <use xlink:href="#m2e81df4c86" x="507.754688" y="236.558437" style="fill: #d62728"/>
     <use xlink:href="#m2e81df4c86" x="554.254688" y="236.558437" style="fill: #d62728"/>
     <use xlink:href="#m2e81df4c86" x="600.754688" y="236.558437" style="fill: #d62728"/>
     <use xlink:href="#m2e81df4c86" x="647.254688" y="236.558437" style="fill: #d62728"/>
     <use xlink:href="#m2e81df4c86" x="693.754688" y="236.558437" style="fill: #d62728"/>
     <use xlink:href="#m2e81df4c86" x="740.254688" y="236.558437" style="fill: #d62728"/>
    </g>
   </g>
   <g id="line2d_37">
    <path d="M 84.604688 214.460525 
L 89.254688 204.098462 
L 135.754688 195.602779 
L 182.254688 195.596551 
L 228.754688 196.945344 
L 275.254688 197.482405 
L 321.754688 203.820127 
L 368.254688 208.52598 
L 414.754688 213.246809 
L 461.254688 217.419796 
L 507.754688 214.520012 
L 554.254688 212.510724 
L 600.754688 211.063764 
L 647.254688 209.62598 
L 676.254688 208.734125 
" clip-path="url(#p0fed06561c)" style="fill: none; stroke: #ff7f0e; stroke-width: 4; stroke-linecap: square"/>
    <defs>
     <path id="m495e715278" d="M -0.49999 0.49999 
L 0.50001 0.49999 
L 0.50001 -0.50001 
L -0.49999 -0.50001 
z
"/>
    </defs>
    <g clip-path="url(#p0fed06561c)">
     <use xlink:href="#m495e715278" x="84.604688" y="214.460525" style="fill: #ff7f0e"/>
     <use xlink:href="#m495e715278" x="89.254688" y="204.098462" style="fill: #ff7f0e"/>
     <use xlink:href="#m495e715278" x="135.754688" y="195.602779" style="fill: #ff7f0e"/>
     <use xlink:href="#m495e715278" x="182.254688" y="195.596551" style="fill: #ff7f0e"/>
     <use xlink:href="#m495e715278" x="228.754688" y="196.945344" style="fill: #ff7f0e"/>
     <use xlink:href="#m495e715278" x="275.254688" y="197.482405" style="fill: #ff7f0e"/>
     <use xlink:href="#m495e715278" x="321.754688" y="203.820127" style="fill: #ff7f0e"/>
     <use xlink:href="#m495e715278" x="368.254688" y="208.52598" style="fill: #ff7f0e"/>
     <use xlink:href="#m495e715278" x="414.754688" y="213.246809" style="fill: #ff7f0e"/>
     <use xlink:href="#m495e715278" x="461.254688" y="217.419796" style="fill: #ff7f0e"/>
     <use xlink:href="#m495e715278" x="507.754688" y="214.520012" style="fill: #ff7f0e"/>
     <use xlink:href="#m495e715278" x="554.254688" y="212.510724" style="fill: #ff7f0e"/>
     <use xlink:href="#m495e715278" x="600.754688" y="211.063764" style="fill: #ff7f0e"/>
     <use xlink:href="#m495e715278" x="647.254688" y="209.62598" style="fill: #ff7f0e"/>
     <use xlink:href="#m495e715278" x="693.754688" y="208.195937" style="fill: #ff7f0e"/>
     <use xlink:href="#m495e715278" x="740.254688" y="207.046343" style="fill: #ff7f0e"/>
    </g>
   </g>
   <g id="line2d_38">
    <path d="M 84.604688 249.740514 
L 89.254688 241.331723 
L 135.754688 246.251988 
L 182.254688 250.926292 
L 228.754688 254.464284 
L 275.254688 257.46632 
L 321.754688 259.267501 
L 368.254688 261.449348 
L 414.754688 263.736669 
L 461.254688 266.185777 
L 507.754688 268.79975 
L 554.254688 271.546862 
L 600.754688 274.297578 
L 647.254688 277.065781 
L 676.254688 278.803512 
" clip-path="url(#p0fed06561c)" style="fill: none; stroke-dasharray: 14.8,6.4; stroke-dashoffset: 0; stroke: #ff7f0e; stroke-width: 4"/>
    <g clip-path="url(#p0fed06561c)">
     <use xlink:href="#m495e715278" x="84.604688" y="249.740514" style="fill: #ff7f0e"/>
     <use xlink:href="#m495e715278" x="89.254688" y="241.331723" style="fill: #ff7f0e"/>
     <use xlink:href="#m495e715278" x="135.754688" y="246.251988" style="fill: #ff7f0e"/>
     <use xlink:href="#m495e715278" x="182.254688" y="250.926292" style="fill: #ff7f0e"/>
     <use xlink:href="#m495e715278" x="228.754688" y="254.464284" style="fill: #ff7f0e"/>
     <use xlink:href="#m495e715278" x="275.254688" y="257.46632" style="fill: #ff7f0e"/>
     <use xlink:href="#m495e715278" x="321.754688" y="259.267501" style="fill: #ff7f0e"/>
     <use xlink:href="#m495e715278" x="368.254688" y="261.449348" style="fill: #ff7f0e"/>
     <use xlink:href="#m495e715278" x="414.754688" y="263.736669" style="fill: #ff7f0e"/>
     <use xlink:href="#m495e715278" x="461.254688" y="266.185777" style="fill: #ff7f0e"/>
     <use xlink:href="#m495e715278" x="507.754688" y="268.79975" style="fill: #ff7f0e"/>
     <use xlink:href="#m495e715278" x="554.254688" y="271.546862" style="fill: #ff7f0e"/>
     <use xlink:href="#m495e715278" x="600.754688" y="274.297578" style="fill: #ff7f0e"/>
     <use xlink:href="#m495e715278" x="647.254688" y="277.065781" style="fill: #ff7f0e"/>
     <use xlink:href="#m495e715278" x="693.754688" y="279.852143" style="fill: #ff7f0e"/>
     <use xlink:href="#m495e715278" x="740.254688" y="282.621758" style="fill: #ff7f0e"/>
    </g>
   </g>
   <g id="line2d_39">
    <path d="M 84.604688 202.043471 
L 89.254688 209.843923 
L 135.754688 218.555353 
L 182.254688 212.768112 
L 228.754688 209.080767 
L 275.254688 207.309722 
L 321.754688 203.284708 
L 368.254688 201.123146 
L 414.754688 199.178354 
L 461.254688 197.133944 
L 507.754688 195.293765 
L 554.254688 193.972978 
L 600.754688 192.959709 
L 647.254688 191.943193 
L 676.254688 191.335001 
" clip-path="url(#p0fed06561c)" style="fill: none; stroke: #2ca02c; stroke-width: 4; stroke-linecap: square"/>
    <defs>
     <path id="m842fd92185" d="M -0.49999 0.49999 
L 0.50001 0.49999 
L 0.50001 -0.50001 
L -0.49999 -0.50001 
z
"/>
    </defs>
    <g clip-path="url(#p0fed06561c)">
     <use xlink:href="#m842fd92185" x="84.604688" y="202.043471" style="fill: #2ca02c"/>
     <use xlink:href="#m842fd92185" x="89.254688" y="209.843923" style="fill: #2ca02c"/>
     <use xlink:href="#m842fd92185" x="135.754688" y="218.555353" style="fill: #2ca02c"/>
     <use xlink:href="#m842fd92185" x="182.254688" y="212.768112" style="fill: #2ca02c"/>
     <use xlink:href="#m842fd92185" x="228.754688" y="209.080767" style="fill: #2ca02c"/>
     <use xlink:href="#m842fd92185" x="275.254688" y="207.309722" style="fill: #2ca02c"/>
     <use xlink:href="#m842fd92185" x="321.754688" y="203.284708" style="fill: #2ca02c"/>
     <use xlink:href="#m842fd92185" x="368.254688" y="201.123146" style="fill: #2ca02c"/>
     <use xlink:href="#m842fd92185" x="414.754688" y="199.178354" style="fill: #2ca02c"/>
     <use xlink:href="#m842fd92185" x="461.254688" y="197.133944" style="fill: #2ca02c"/>
     <use xlink:href="#m842fd92185" x="507.754688" y="195.293765" style="fill: #2ca02c"/>
     <use xlink:href="#m842fd92185" x="554.254688" y="193.972978" style="fill: #2ca02c"/>
     <use xlink:href="#m842fd92185" x="600.754688" y="192.959709" style="fill: #2ca02c"/>
     <use xlink:href="#m842fd92185" x="647.254688" y="191.943193" style="fill: #2ca02c"/>
     <use xlink:href="#m842fd92185" x="693.754688" y="190.967988" style="fill: #2ca02c"/>
     <use xlink:href="#m842fd92185" x="740.254688" y="190.045849" style="fill: #2ca02c"/>
    </g>
   </g>
   <g id="line2d_40">
    <path d="M 84.604688 277.824682 
L 89.254688 236.558437 
L 135.754688 236.558437 
L 182.254688 236.558437 
L 228.754688 237.537069 
L 275.254688 238.339563 
L 321.754688 238.382077 
L 368.254688 238.581995 
L 414.754688 238.683374 
L 461.254688 238.693528 
L 507.754688 238.790885 
L 554.254688 238.84539 
L 600.754688 238.874045 
L 647.254688 238.91079 
L 676.254688 238.919735 
" clip-path="url(#p0fed06561c)" style="fill: none; stroke-dasharray: 14.8,6.4; stroke-dashoffset: 0; stroke: #2ca02c; stroke-width: 4"/>
    <g clip-path="url(#p0fed06561c)">
     <use xlink:href="#m842fd92185" x="84.604688" y="277.824682" style="fill: #2ca02c"/>
     <use xlink:href="#m842fd92185" x="89.254688" y="236.558437" style="fill: #2ca02c"/>
     <use xlink:href="#m842fd92185" x="135.754688" y="236.558437" style="fill: #2ca02c"/>
     <use xlink:href="#m842fd92185" x="182.254688" y="236.558437" style="fill: #2ca02c"/>
     <use xlink:href="#m842fd92185" x="228.754688" y="237.537069" style="fill: #2ca02c"/>
     <use xlink:href="#m842fd92185" x="275.254688" y="238.339563" style="fill: #2ca02c"/>
     <use xlink:href="#m842fd92185" x="321.754688" y="238.382077" style="fill: #2ca02c"/>
     <use xlink:href="#m842fd92185" x="368.254688" y="238.581995" style="fill: #2ca02c"/>
     <use xlink:href="#m842fd92185" x="414.754688" y="238.683374" style="fill: #2ca02c"/>
     <use xlink:href="#m842fd92185" x="461.254688" y="238.693528" style="fill: #2ca02c"/>
     <use xlink:href="#m842fd92185" x="507.754688" y="238.790885" style="fill: #2ca02c"/>
     <use xlink:href="#m842fd92185" x="554.254688" y="238.84539" style="fill: #2ca02c"/>
     <use xlink:href="#m842fd92185" x="600.754688" y="238.874045" style="fill: #2ca02c"/>
     <use xlink:href="#m842fd92185" x="647.254688" y="238.91079" style="fill: #2ca02c"/>
     <use xlink:href="#m842fd92185" x="693.754688" y="238.925132" style="fill: #2ca02c"/>
     <use xlink:href="#m842fd92185" x="740.254688" y="238.936779" style="fill: #2ca02c"/>
    </g>
   </g>
   <g id="patch_3">
    <path d="M 84.604688 458.318437 
L 84.604688 14.798437 
" style="fill: none; stroke: #000000; stroke-width: 0.8; stroke-linejoin: miter; stroke-linecap: square"/>
   </g>
   <g id="patch_4">
    <path d="M 642.604687 458.318437 
L 642.604687 14.798437 
" style="fill: none; stroke: #000000; stroke-width: 0.8; stroke-linejoin: miter; stroke-linecap: square"/>
   </g>
   <g id="patch_5">
    <path d="M 84.604688 458.318437 
L 642.604687 458.318437 
" style="fill: none; stroke: #000000; stroke-width: 0.8; stroke-linejoin: miter; stroke-linecap: square"/>
   </g>
   <g id="patch_6">
    <path d="M 84.604688 14.798437 
L 642.604687 14.798437 
" style="fill: none; stroke: #000000; stroke-width: 0.8; stroke-linejoin: miter; stroke-linecap: square"/>
   </g>
   <g id="legend_1">
    <g id="patch_7">
     <path d="M 97.204688 449.318437 
L 501.4425 449.318437 
Q 505.0425 449.318437 505.0425 445.718437 
L 505.0425 341.835937 
Q 505.0425 338.235937 501.4425 338.235937 
L 97.204688 338.235937 
Q 93.604688 338.235937 93.604688 341.835937 
L 93.604688 445.718437 
Q 93.604688 449.318437 97.204688 449.318437 
z
" style="fill: #ffffff; opacity: 0.8; stroke: #cccccc; stroke-linejoin: miter"/>
    </g>
    <g id="line2d_41">
     <path d="M 100.804688 352.813125 
L 118.804688 352.813125 
L 136.804688 352.813125 
" style="fill: none; stroke: #000000; stroke-width: 4; stroke-linecap: square"/>
     <g>
      <use xlink:href="#mc41ad6e6f4" x="118.804688" y="352.813125"/>
     </g>
    </g>
    <g id="text_19">
     <!-- total (upper) -->
     <g transform="translate(151.204688 359.113125) scale(0.18 -0.18)">
      <defs>
       <path id="DejaVuSans-6f" d="M 1959 3097 
Q 1497 3097 1228 2736 
Q 959 2375 959 1747 
Q 959 1119 1226 758 
Q 1494 397 1959 397 
Q 2419 397 2687 759 
Q 2956 1122 2956 1747 
Q 2956 2369 2687 2733 
Q 2419 3097 1959 3097 
z
M 1959 3584 
Q 2709 3584 3137 3096 
Q 3566 2609 3566 1747 
Q 3566 888 3137 398 
Q 2709 -91 1959 -91 
Q 1206 -91 779 398 
Q 353 888 353 1747 
Q 353 2609 779 3096 
Q 1206 3584 1959 3584 
z
" transform="scale(0.015625)"/>
       <path id="DejaVuSans-28" d="M 1984 4856 
Q 1566 4138 1362 3434 
Q 1159 2731 1159 2009 
Q 1159 1288 1364 580 
Q 1569 -128 1984 -844 
L 1484 -844 
Q 1016 -109 783 600 
Q 550 1309 550 2009 
Q 550 2706 781 3412 
Q 1013 4119 1484 4856 
L 1984 4856 
z
" transform="scale(0.015625)"/>
       <path id="DejaVuSans-29" d="M 513 4856 
L 1013 4856 
Q 1481 4119 1714 3412 
Q 1947 2706 1947 2009 
Q 1947 1309 1714 600 
Q 1481 -109 1013 -844 
L 513 -844 
Q 928 -128 1133 580 
Q 1338 1288 1338 2009 
Q 1338 2731 1133 3434 
Q 928 4138 513 4856 
z
" transform="scale(0.015625)"/>
      </defs>
      <use xlink:href="#DejaVuSans-74"/>
      <use xlink:href="#DejaVuSans-6f" x="39.208984"/>
      <use xlink:href="#DejaVuSans-74" x="100.390625"/>
      <use xlink:href="#DejaVuSans-61" x="139.599609"/>
      <use xlink:href="#DejaVuSans-6c" x="200.878906"/>
      <use xlink:href="#DejaVuSans-20" x="228.662109"/>
      <use xlink:href="#DejaVuSans-28" x="260.449219"/>
      <use xlink:href="#DejaVuSans-75" x="299.462891"/>
      <use xlink:href="#DejaVuSans-70" x="362.841797"/>
      <use xlink:href="#DejaVuSans-70" x="426.318359"/>
      <use xlink:href="#DejaVuSans-65" x="489.794922"/>
      <use xlink:href="#DejaVuSans-72" x="551.318359"/>
      <use xlink:href="#DejaVuSans-29" x="592.431641"/>
     </g>
    </g>
    <g id="line2d_42">
     <path d="M 100.804688 379.23375 
L 118.804688 379.23375 
L 136.804688 379.23375 
" style="fill: none; stroke-dasharray: 14.8,6.4; stroke-dashoffset: 0; stroke: #000000; stroke-width: 4"/>
     <g>
      <use xlink:href="#mc41ad6e6f4" x="118.804688" y="379.23375"/>
     </g>
    </g>
    <g id="text_20">
     <!-- total (lower) -->
     <g transform="translate(151.204688 385.53375) scale(0.18 -0.18)">
      <use xlink:href="#DejaVuSans-74"/>
      <use xlink:href="#DejaVuSans-6f" x="39.208984"/>
      <use xlink:href="#DejaVuSans-74" x="100.390625"/>
      <use xlink:href="#DejaVuSans-61" x="139.599609"/>
      <use xlink:href="#DejaVuSans-6c" x="200.878906"/>
      <use xlink:href="#DejaVuSans-20" x="228.662109"/>
      <use xlink:href="#DejaVuSans-28" x="260.449219"/>
      <use xlink:href="#DejaVuSans-6c" x="299.462891"/>
      <use xlink:href="#DejaVuSans-6f" x="327.246094"/>
      <use xlink:href="#DejaVuSans-77" x="388.427734"/>
      <use xlink:href="#DejaVuSans-65" x="470.214844"/>
      <use xlink:href="#DejaVuSans-72" x="531.738281"/>
      <use xlink:href="#DejaVuSans-29" x="572.851562"/>
     </g>
    </g>
    <g id="line2d_43">
     <path d="M 100.804688 405.654375 
L 118.804688 405.654375 
L 136.804688 405.654375 
" style="fill: none; stroke: #d62728; stroke-width: 4; stroke-linecap: square"/>
     <g>
      <use xlink:href="#m2e81df4c86" x="118.804688" y="405.654375" style="fill: #d62728"/>
     </g>
    </g>
    <g id="text_21">
     <!-- cr (upper) -->
     <g transform="translate(151.204688 411.954375) scale(0.18 -0.18)">
      <use xlink:href="#DejaVuSans-63"/>
      <use xlink:href="#DejaVuSans-72" x="54.980469"/>
      <use xlink:href="#DejaVuSans-20" x="96.09375"/>
      <use xlink:href="#DejaVuSans-28" x="127.880859"/>
      <use xlink:href="#DejaVuSans-75" x="166.894531"/>
      <use xlink:href="#DejaVuSans-70" x="230.273438"/>
      <use xlink:href="#DejaVuSans-70" x="293.75"/>
      <use xlink:href="#DejaVuSans-65" x="357.226562"/>
      <use xlink:href="#DejaVuSans-72" x="418.75"/>
      <use xlink:href="#DejaVuSans-29" x="459.863281"/>
     </g>
    </g>
    <g id="line2d_44">
     <path d="M 100.804688 432.075 
L 118.804688 432.075 
L 136.804688 432.075 
" style="fill: none; stroke-dasharray: 14.8,6.4; stroke-dashoffset: 0; stroke: #d62728; stroke-width: 4"/>
     <g>
      <use xlink:href="#m2e81df4c86" x="118.804688" y="432.075" style="fill: #d62728"/>
     </g>
    </g>
    <g id="text_22">
     <!-- cr (lower) -->
     <g transform="translate(151.204688 438.375) scale(0.18 -0.18)">
      <use xlink:href="#DejaVuSans-63"/>
      <use xlink:href="#DejaVuSans-72" x="54.980469"/>
      <use xlink:href="#DejaVuSans-20" x="96.09375"/>
      <use xlink:href="#DejaVuSans-28" x="127.880859"/>
      <use xlink:href="#DejaVuSans-6c" x="166.894531"/>
      <use xlink:href="#DejaVuSans-6f" x="194.677734"/>
      <use xlink:href="#DejaVuSans-77" x="255.859375"/>
      <use xlink:href="#DejaVuSans-65" x="337.646484"/>
      <use xlink:href="#DejaVuSans-72" x="399.169922"/>
      <use xlink:href="#DejaVuSans-29" x="440.283203"/>
     </g>
    </g>
    <g id="line2d_45">
     <path d="M 300.86625 352.813125 
L 318.86625 352.813125 
L 336.86625 352.813125 
" style="fill: none; stroke: #ff7f0e; stroke-width: 4; stroke-linecap: square"/>
     <g>
      <use xlink:href="#m495e715278" x="318.86625" y="352.813125" style="fill: #ff7f0e"/>
     </g>
    </g>
    <g id="text_23">
     <!-- had (upper) -->
     <g transform="translate(351.26625 359.113125) scale(0.18 -0.18)">
      <use xlink:href="#DejaVuSans-68"/>
      <use xlink:href="#DejaVuSans-61" x="63.378906"/>
      <use xlink:href="#DejaVuSans-64" x="124.658203"/>
      <use xlink:href="#DejaVuSans-20" x="188.134766"/>
      <use xlink:href="#DejaVuSans-28" x="219.921875"/>
      <use xlink:href="#DejaVuSans-75" x="258.935547"/>
      <use xlink:href="#DejaVuSans-70" x="322.314453"/>
      <use xlink:href="#DejaVuSans-70" x="385.791016"/>
      <use xlink:href="#DejaVuSans-65" x="449.267578"/>
      <use xlink:href="#DejaVuSans-72" x="510.791016"/>
      <use xlink:href="#DejaVuSans-29" x="551.904297"/>
     </g>
    </g>
    <g id="line2d_46">
     <path d="M 300.86625 379.23375 
L 318.86625 379.23375 
L 336.86625 379.23375 
" style="fill: none; stroke-dasharray: 14.8,6.4; stroke-dashoffset: 0; stroke: #ff7f0e; stroke-width: 4"/>
     <g>
      <use xlink:href="#m495e715278" x="318.86625" y="379.23375" style="fill: #ff7f0e"/>
     </g>
    </g>
    <g id="text_24">
     <!-- had (lower) -->
     <g transform="translate(351.26625 385.53375) scale(0.18 -0.18)">
      <use xlink:href="#DejaVuSans-68"/>
      <use xlink:href="#DejaVuSans-61" x="63.378906"/>
      <use xlink:href="#DejaVuSans-64" x="124.658203"/>
      <use xlink:href="#DejaVuSans-20" x="188.134766"/>
      <use xlink:href="#DejaVuSans-28" x="219.921875"/>
      <use xlink:href="#DejaVuSans-6c" x="258.935547"/>
      <use xlink:href="#DejaVuSans-6f" x="286.71875"/>
      <use xlink:href="#DejaVuSans-77" x="347.900391"/>
      <use xlink:href="#DejaVuSans-65" x="429.6875"/>
      <use xlink:href="#DejaVuSans-72" x="491.210938"/>
      <use xlink:href="#DejaVuSans-29" x="532.324219"/>
     </g>
    </g>
    <g id="line2d_47">
     <path d="M 300.86625 405.654375 
L 318.86625 405.654375 
L 336.86625 405.654375 
" style="fill: none; stroke: #2ca02c; stroke-width: 4; stroke-linecap: square"/>
     <g>
      <use xlink:href="#m842fd92185" x="318.86625" y="405.654375" style="fill: #2ca02c"/>
     </g>
    </g>
    <g id="text_25">
     <!-- monthly (upper) -->
     <g transform="translate(351.26625 411.954375) scale(0.18 -0.18)">
      <use xlink:href="#DejaVuSans-6d"/>
      <use xlink:href="#DejaVuSans-6f" x="97.412109"/>
      <use xlink:href="#DejaVuSans-6e" x="158.59375"/>
      <use xlink:href="#DejaVuSans-74" x="221.972656"/>
      <use xlink:href="#DejaVuSans-68" x="261.181641"/>
      <use xlink:href="#DejaVuSans-6c" x="324.560547"/>
      <use xlink:href="#DejaVuSans-79" x="352.34375"/>
      <use xlink:href="#DejaVuSans-20" x="411.523438"/>
      <use xlink:href="#DejaVuSans-28" x="443.310547"/>
      <use xlink:href="#DejaVuSans-75" x="482.324219"/>
      <use xlink:href="#DejaVuSans-70" x="545.703125"/>
      <use xlink:href="#DejaVuSans-70" x="609.179688"/>
      <use xlink:href="#DejaVuSans-65" x="672.65625"/>
      <use xlink:href="#DejaVuSans-72" x="734.179688"/>
      <use xlink:href="#DejaVuSans-29" x="775.292969"/>
     </g>
    </g>
    <g id="line2d_48">
     <path d="M 300.86625 432.075 
L 318.86625 432.075 
L 336.86625 432.075 
" style="fill: none; stroke-dasharray: 14.8,6.4; stroke-dashoffset: 0; stroke: #2ca02c; stroke-width: 4"/>
     <g>
      <use xlink:href="#m842fd92185" x="318.86625" y="432.075" style="fill: #2ca02c"/>
     </g>
    </g>
    <g id="text_26">
     <!-- monthly (lower) -->
     <g transform="translate(351.26625 438.375) scale(0.18 -0.18)">
      <use xlink:href="#DejaVuSans-6d"/>
      <use xlink:href="#DejaVuSans-6f" x="97.412109"/>
      <use xlink:href="#DejaVuSans-6e" x="158.59375"/>
      <use xlink:href="#DejaVuSans-74" x="221.972656"/>
      <use xlink:href="#DejaVuSans-68" x="261.181641"/>
      <use xlink:href="#DejaVuSans-6c" x="324.560547"/>
      <use xlink:href="#DejaVuSans-79" x="352.34375"/>
      <use xlink:href="#DejaVuSans-20" x="411.523438"/>
      <use xlink:href="#DejaVuSans-28" x="443.310547"/>
      <use xlink:href="#DejaVuSans-6c" x="482.324219"/>
      <use xlink:href="#DejaVuSans-6f" x="510.107422"/>
      <use xlink:href="#DejaVuSans-77" x="571.289062"/>
      <use xlink:href="#DejaVuSans-65" x="653.076172"/>
      <use xlink:href="#DejaVuSans-72" x="714.599609"/>
      <use xlink:href="#DejaVuSans-29" x="755.712891"/>
     </g>
    </g>
   </g>
  </g>
 </g>
 <defs>
  <clipPath id="p0fed06561c">
   <rect x="84.604688" y="14.798437" width="558" height="443.52"/>
  </clipPath>
 </defs>
</svg>
